<mxfile host="app.diagrams.net" modified="2023-04-14T17:02:25.171Z" agent="Mozilla/5.0 (Windows NT 10.0; Win64; x64) AppleWebKit/537.36 (KHTML, like Gecko) Chrome/112.0.0.0 Safari/537.36" etag="QYsiF5mlAv5ErHVH0kY1" version="21.1.1" type="device">
  <diagram id="0P16Z8m6-t_vvTV5qrlj" name="Seite-1">
    <mxGraphModel dx="1358" dy="822" grid="0" gridSize="10" guides="1" tooltips="1" connect="1" arrows="1" fold="1" page="1" pageScale="1" pageWidth="1169" pageHeight="1654" background="#FFFFFF" math="0" shadow="0">
      <root>
        <mxCell id="0" />
        <mxCell id="2" value="Layer 0" parent="0" />
        <mxCell id="o0Gcgj2iXJ9e7bKyXlry-219" value="&lt;div style=&#39;width: 93.0px;height:auto;word-break: break-word;&#39;&gt;&lt;div align=&quot;center&quot;&gt;&lt;span style=&quot;font-family: Arial; font-size: 12px; line-height: 0;&quot;&gt;&lt;span style=&quot;line-height: 14px;&quot; class=&quot;&quot;&gt;B_HUB&lt;/span&gt;&lt;/span&gt;&lt;/div&gt;&lt;/div&gt;" style="shape=ellipse;perimeter=ellipsePerimeter;shadow=0;strokeWidth=2;fillColor=#FFFFFF;strokeColor=#333333;opacity=100.0;html=1;nl2Br=0;verticalAlign=middle;align=center;spacingLeft=8.0;spacingRight=6;whiteSpace=wrap;gliffyId=710;" parent="2" vertex="1">
          <mxGeometry x="549.5" y="1836" width="100" height="50" as="geometry" />
        </mxCell>
        <mxCell id="163" value="&lt;div style=&#39;width: 93.0px;height:auto;word-break: break-word;&#39;&gt;&lt;div align=&quot;center&quot;&gt;&lt;span style=&quot;font-family: Arial; font-size: 12px; line-height: 0;&quot;&gt;&lt;span style=&quot;line-height: 14px;&quot; class=&quot;&quot;&gt;B_HUB&lt;/span&gt;&lt;/span&gt;&lt;/div&gt;&lt;/div&gt;" style="shape=ellipse;perimeter=ellipsePerimeter;shadow=0;strokeWidth=2;fillColor=#FFFFFF;strokeColor=#333333;opacity=100.0;html=1;nl2Br=0;verticalAlign=middle;align=center;spacingLeft=8.0;spacingRight=6;whiteSpace=wrap;gliffyId=710;" parent="2" vertex="1">
          <mxGeometry x="576.25" y="1469" width="100" height="50" as="geometry" />
        </mxCell>
        <mxCell id="o0Gcgj2iXJ9e7bKyXlry-193" value="stage" style="rounded=0;whiteSpace=wrap;html=1;verticalAlign=top;align=left;strokeColor=none;fillColor=#E6E6E6;" parent="2" vertex="1">
          <mxGeometry x="710.75" y="1308" width="641.25" height="69" as="geometry" />
        </mxCell>
        <mxCell id="o0Gcgj2iXJ9e7bKyXlry-194" value="stage" style="rounded=0;whiteSpace=wrap;html=1;verticalAlign=top;align=left;strokeColor=none;fillColor=#E6E6E6;" parent="2" vertex="1">
          <mxGeometry x="45.75" y="1308" width="651.25" height="69" as="geometry" />
        </mxCell>
        <mxCell id="o0Gcgj2iXJ9e7bKyXlry-191" value="stage" style="rounded=0;whiteSpace=wrap;html=1;verticalAlign=top;align=left;strokeColor=none;fillColor=#E6E6E6;" parent="2" vertex="1">
          <mxGeometry x="696.75" y="848" width="642.25" height="69" as="geometry" />
        </mxCell>
        <mxCell id="o0Gcgj2iXJ9e7bKyXlry-192" value="stage" style="rounded=0;whiteSpace=wrap;html=1;verticalAlign=top;align=left;strokeColor=none;fillColor=#E6E6E6;" parent="2" vertex="1">
          <mxGeometry x="31.75" y="848" width="637.75" height="69" as="geometry" />
        </mxCell>
        <mxCell id="o0Gcgj2iXJ9e7bKyXlry-190" value="stage" style="rounded=0;whiteSpace=wrap;html=1;verticalAlign=top;align=left;strokeColor=none;fillColor=#E6E6E6;" parent="2" vertex="1">
          <mxGeometry x="697.5" y="474" width="657.5" height="69" as="geometry" />
        </mxCell>
        <mxCell id="o0Gcgj2iXJ9e7bKyXlry-189" value="stage" style="rounded=0;whiteSpace=wrap;html=1;verticalAlign=top;align=left;strokeColor=none;fillColor=#E6E6E6;" parent="2" vertex="1">
          <mxGeometry x="32.5" y="474" width="637.75" height="69" as="geometry" />
        </mxCell>
        <mxCell id="o0Gcgj2iXJ9e7bKyXlry-181" value="stage" style="rounded=0;whiteSpace=wrap;html=1;verticalAlign=top;align=left;strokeColor=none;fillColor=#E6E6E6;" parent="2" vertex="1">
          <mxGeometry x="27.5" y="113" width="669.5" height="69" as="geometry" />
        </mxCell>
        <mxCell id="kWUUyLPTGwqevRa5YsfH-185" style="edgeStyle=orthogonalEdgeStyle;shape=filledEdge;rounded=1;orthogonalLoop=1;jettySize=auto;html=1;labelBackgroundColor=default;strokeColor=#cc0000;strokeWidth=2;fontFamily=Helvetica;fontSize=11;fontColor=default;startArrow=none;startFill=0;endArrow=none;endFill=0;startSize=6;endSize=6;fillColor=none;" parent="2" source="3" target="170" edge="1">
          <mxGeometry relative="1" as="geometry" />
        </mxCell>
        <mxCell id="3" value="&lt;div style=&#39;width: 93.0px;height:auto;word-break: break-word;&#39;&gt;&lt;div align=&quot;center&quot;&gt;&lt;span style=&quot;font-family: Arial; font-size: 12px; line-height: 0;&quot;&gt;&lt;span style=&quot;line-height: 14px;&quot; class=&quot;&quot;&gt;B_HUB&lt;/span&gt;&lt;/span&gt;&lt;/div&gt;&lt;/div&gt;" style="shape=ellipse;perimeter=ellipsePerimeter;shadow=0;strokeWidth=2;fillColor=#FFFFFF;strokeColor=#d2d2d2;opacity=100.0;html=1;nl2Br=0;verticalAlign=middle;align=center;spacingLeft=2;spacingRight=0;whiteSpace=wrap;gliffyId=753;fontColor=#d2d2d2;" parent="2" vertex="1">
          <mxGeometry x="1126.5" y="1469" width="100" height="50" as="geometry" />
        </mxCell>
        <mxCell id="kWUUyLPTGwqevRa5YsfH-180" style="edgeStyle=orthogonalEdgeStyle;shape=filledEdge;rounded=1;orthogonalLoop=1;jettySize=auto;html=1;labelBackgroundColor=default;strokeColor=#cc0000;strokeWidth=2;fontFamily=Helvetica;fontSize=11;fontColor=default;startArrow=none;startFill=0;endArrow=none;endFill=0;startSize=6;endSize=6;fillColor=none;" parent="2" source="5" target="172" edge="1">
          <mxGeometry relative="1" as="geometry" />
        </mxCell>
        <mxCell id="5" value="&lt;div style=&#39;width: 93.0px;height:auto;word-break: break-word;&#39;&gt;&lt;div align=&quot;center&quot;&gt;&lt;span style=&quot;font-family: Arial; font-size: 12px; text-decoration: none; line-height: 0;&quot;&gt;&lt;span style=&quot;text-decoration: none; line-height: 14px;&quot;&gt;A_HUB&lt;/span&gt;&lt;/span&gt;&lt;/div&gt;&lt;/div&gt;" style="shape=ellipse;perimeter=ellipsePerimeter;shadow=0;strokeWidth=2;fillColor=#FFFFFF;strokeColor=#d2d2d2;opacity=100.0;html=1;nl2Br=0;verticalAlign=middle;align=center;spacingLeft=2.0;spacingRight=0;whiteSpace=wrap;gliffyId=828;fontColor=#d2d2d2;" parent="2" vertex="1">
          <mxGeometry x="828.5" y="1009.5" width="100" height="50" as="geometry" />
        </mxCell>
        <mxCell id="6" value="&lt;div style=&#39;width: 93.0px;height:auto;word-break: break-word;&#39;&gt;&lt;div align=&quot;center&quot;&gt;&lt;span style=&quot;font-family: Arial; font-size: 12px; text-decoration: none; line-height: 0;&quot;&gt;&lt;span style=&quot;text-decoration: none; line-height: 14px;&quot;&gt;A_HUB&lt;/span&gt;&lt;/span&gt;&lt;/div&gt;&lt;/div&gt;" style="shape=ellipse;perimeter=ellipsePerimeter;shadow=0;strokeWidth=2;fillColor=#FFFFFF;strokeColor=#d2d2d2;opacity=100.0;html=1;nl2Br=0;verticalAlign=middle;align=center;spacingLeft=2.0;spacingRight=0;whiteSpace=wrap;gliffyId=888;fontColor=#d2d2d2;" parent="2" vertex="1">
          <mxGeometry x="171.82" y="1010.5" width="100" height="50" as="geometry" />
        </mxCell>
        <mxCell id="kWUUyLPTGwqevRa5YsfH-189" style="edgeStyle=orthogonalEdgeStyle;shape=filledEdge;rounded=1;orthogonalLoop=1;jettySize=auto;html=1;labelBackgroundColor=default;strokeColor=#cc0000;strokeWidth=2;fontFamily=Helvetica;fontSize=11;fontColor=default;startArrow=none;startFill=0;endArrow=none;endFill=0;startSize=6;endSize=6;fillColor=none;" parent="2" source="7" target="169" edge="1">
          <mxGeometry relative="1" as="geometry" />
        </mxCell>
        <mxCell id="7" value="&lt;div style=&#39;width: 93.0px;height:auto;word-break: break-word;&#39;&gt;&lt;div align=&quot;center&quot;&gt;&lt;span style=&quot;font-family: Arial; font-size: 12px; text-decoration: none; line-height: 0;&quot;&gt;&lt;span style=&quot;text-decoration: none; line-height: 14px;&quot;&gt;A_HUB&lt;/span&gt;&lt;/span&gt;&lt;/div&gt;&lt;/div&gt;" style="shape=ellipse;perimeter=ellipsePerimeter;shadow=0;strokeWidth=2;fillColor=#FFFFFF;strokeColor=#d2d2d2;opacity=100.0;html=1;nl2Br=0;verticalAlign=middle;align=center;spacingLeft=2.0;spacingRight=0;whiteSpace=wrap;gliffyId=895;fontColor=#d2d2d2;" parent="2" vertex="1">
          <mxGeometry x="203.5" y="1470" width="100" height="50" as="geometry" />
        </mxCell>
        <mxCell id="kWUUyLPTGwqevRa5YsfH-184" style="edgeStyle=orthogonalEdgeStyle;shape=filledEdge;rounded=1;orthogonalLoop=1;jettySize=auto;html=1;labelBackgroundColor=default;strokeColor=#cc0000;strokeWidth=2;fontFamily=Helvetica;fontSize=11;fontColor=default;startArrow=none;startFill=0;endArrow=none;endFill=0;startSize=6;endSize=6;fillColor=none;" parent="2" source="8" target="170" edge="1">
          <mxGeometry relative="1" as="geometry" />
        </mxCell>
        <mxCell id="8" value="&lt;div style=&#39;width: 93.0px;height:auto;word-break: break-word;&#39;&gt;&lt;div align=&quot;center&quot;&gt;&lt;span style=&quot;font-family: Arial; font-size: 12px; text-decoration: none; line-height: 0;&quot;&gt;&lt;span style=&quot;text-decoration: none; line-height: 14px;&quot;&gt;A_HUB&lt;/span&gt;&lt;/span&gt;&lt;/div&gt;&lt;/div&gt;" style="shape=ellipse;perimeter=ellipsePerimeter;shadow=0;strokeWidth=2;fillColor=#FFFFFF;strokeColor=#d2d2d2;opacity=100.0;html=1;nl2Br=0;verticalAlign=middle;align=center;spacingLeft=2.0;spacingRight=0;whiteSpace=wrap;gliffyId=901;fontColor=#d2d2d2;" parent="2" vertex="1">
          <mxGeometry x="826" y="1469" width="100" height="50" as="geometry" />
        </mxCell>
        <mxCell id="kWUUyLPTGwqevRa5YsfH-181" style="edgeStyle=orthogonalEdgeStyle;shape=filledEdge;rounded=1;orthogonalLoop=1;jettySize=auto;html=1;labelBackgroundColor=default;strokeColor=#cc0000;strokeWidth=2;fontFamily=Helvetica;fontSize=11;fontColor=default;startArrow=none;startFill=0;endArrow=none;endFill=0;startSize=6;endSize=6;fillColor=none;" parent="2" source="13" target="168" edge="1">
          <mxGeometry relative="1" as="geometry" />
        </mxCell>
        <mxCell id="15" style="shape=filledEdge;strokeWidth=2;strokeColor=#000000;fillColor=none;startArrow=none;startFill=0;startSize=6;endArrow=none;endFill=0;endSize=6;rounded=1;gliffyId=17;edgeStyle=orthogonalEdgeStyle;" parent="2" source="36" target="158" edge="1">
          <mxGeometry width="1" height="23" relative="1" as="geometry">
            <Array as="points">
              <mxPoint x="115.25" y="304" />
              <mxPoint x="125.58333587646484" y="304" />
              <mxPoint x="135.9166717529297" y="304" />
              <mxPoint x="146.25" y="304" />
            </Array>
          </mxGeometry>
        </mxCell>
        <mxCell id="16" style="shape=filledEdge;strokeWidth=2;strokeColor=#cc0000;fillColor=none;startArrow=none;startFill=0;startSize=6;endArrow=none;endFill=0;endSize=6;rounded=1;gliffyId=521;edgeStyle=orthogonalEdgeStyle;" parent="2" source="43" target="159" edge="1">
          <mxGeometry width="1" height="23" relative="1" as="geometry">
            <Array as="points">
              <mxPoint x="112.5" y="664" />
              <mxPoint x="122.83333587646484" y="664" />
              <mxPoint x="133.1666717529297" y="664" />
              <mxPoint x="143.5" y="664" />
            </Array>
          </mxGeometry>
        </mxCell>
        <mxCell id="17" style="shape=filledEdge;strokeWidth=2;strokeColor=#cc0000;fillColor=none;startArrow=none;startFill=0;startSize=6;endArrow=none;endFill=0;endSize=6;rounded=1;gliffyId=745;edgeStyle=orthogonalEdgeStyle;" parent="2" source="46" target="7" edge="1">
          <mxGeometry width="1" height="23" relative="1" as="geometry">
            <Array as="points" />
          </mxGeometry>
        </mxCell>
        <mxCell id="18" style="shape=filledEdge;strokeWidth=2;strokeColor=#cc0000;fillColor=none;startArrow=none;startFill=0;startSize=6;endArrow=none;endFill=0;endSize=6;rounded=1;gliffyId=787;edgeStyle=orthogonalEdgeStyle;" parent="2" source="47" target="8" edge="1">
          <mxGeometry width="1" height="23" relative="1" as="geometry">
            <mxPoint x="893" y="1494" as="targetPoint" />
          </mxGeometry>
        </mxCell>
        <mxCell id="20" style="shape=filledEdge;strokeWidth=2;strokeColor=#cc0000;fillColor=none;startArrow=none;startFill=0;startSize=6;endArrow=none;endFill=0;endSize=6;rounded=1;gliffyId=520;edgeStyle=orthogonalEdgeStyle;" parent="2" source="167" target="159" edge="1">
          <mxGeometry width="1" height="23" relative="1" as="geometry">
            <Array as="points">
              <mxPoint x="388.5" y="664" />
              <mxPoint x="340.1666564941406" y="664" />
              <mxPoint x="291.8333435058594" y="664" />
              <mxPoint x="243.5" y="664" />
            </Array>
          </mxGeometry>
        </mxCell>
        <mxCell id="21" style="shape=filledEdge;strokeWidth=2;strokeColor=#cc0000;fillColor=none;startArrow=none;startFill=0;startSize=6;endArrow=none;endFill=0;endSize=6;rounded=1;gliffyId=696;edgeStyle=orthogonalEdgeStyle;entryX=1;entryY=0.5;entryDx=0;entryDy=0;" parent="2" source="13" target="44" edge="1">
          <mxGeometry width="1" height="23" relative="1" as="geometry">
            <Array as="points">
              <mxPoint x="837" y="665" />
              <mxPoint x="837" y="608" />
            </Array>
          </mxGeometry>
        </mxCell>
        <mxCell id="22" style="shape=filledEdge;strokeWidth=2;strokeColor=#cc0000;fillColor=none;startArrow=none;startFill=0;startSize=6;endArrow=none;endFill=0;endSize=6;rounded=1;gliffyId=705;edgeStyle=orthogonalEdgeStyle;" parent="2" source="45" target="13" edge="1">
          <mxGeometry width="1" height="23" relative="1" as="geometry" />
        </mxCell>
        <mxCell id="23" style="shape=filledEdge;strokeWidth=2;strokeColor=#cc0000;fillColor=none;startArrow=none;startFill=0;startSize=6;endArrow=none;endFill=0;endSize=6;rounded=1;gliffyId=569;edgeStyle=orthogonalEdgeStyle;" parent="2" source="49" target="6" edge="1">
          <mxGeometry width="1" height="23" relative="1" as="geometry">
            <mxPoint x="230" y="1038" as="targetPoint" />
          </mxGeometry>
        </mxCell>
        <mxCell id="24" style="shape=filledEdge;strokeWidth=2;strokeColor=#cc0000;fillColor=none;startArrow=none;startFill=0;startSize=6;endArrow=none;endFill=0;endSize=6;rounded=1;gliffyId=860;edgeStyle=orthogonalEdgeStyle;" parent="2" source="50" target="5" edge="1">
          <mxGeometry width="1" height="23" relative="1" as="geometry">
            <Array as="points" />
          </mxGeometry>
        </mxCell>
        <mxCell id="27" style="shape=filledEdge;strokeWidth=2;strokeColor=#d2d2d2;fillColor=#FFFFFF;startArrow=none;startFill=0;startSize=6;endArrow=none;endFill=0;endSize=6;rounded=1;gliffyId=519;edgeStyle=orthogonalEdgeStyle;fontSize=12;fontColor=#d2d2d2;shadow=0;opacity=100;spacingLeft=2;spacingRight=0;" parent="2" source="161" target="167" edge="1">
          <mxGeometry width="1" height="23" relative="1" as="geometry">
            <Array as="points">
              <mxPoint x="538.5" y="664" />
              <mxPoint x="530.8333129882812" y="664" />
              <mxPoint x="523.1666870117188" y="664" />
              <mxPoint x="515.5" y="664" />
            </Array>
          </mxGeometry>
        </mxCell>
        <mxCell id="28" style="shape=filledEdge;strokeWidth=2;strokeColor=#cc0000;fillColor=none;startArrow=none;startFill=0;startSize=6;endArrow=none;endFill=0;endSize=6;rounded=1;gliffyId=875;edgeStyle=orthogonalEdgeStyle;" parent="2" source="39" edge="1">
          <mxGeometry width="1" height="23" relative="1" as="geometry">
            <mxPoint x="450" y="640" as="targetPoint" />
          </mxGeometry>
        </mxCell>
        <mxCell id="29" style="shape=filledEdge;strokeWidth=2;strokeColor=#cc0000;fillColor=none;startArrow=none;startFill=0;startSize=6;endArrow=none;endFill=0;endSize=6;rounded=1;gliffyId=877;edgeStyle=orthogonalEdgeStyle;" parent="2" source="40" edge="1">
          <mxGeometry width="1" height="23" relative="1" as="geometry">
            <mxPoint x="1160" y="640" as="targetPoint" />
            <Array as="points">
              <mxPoint x="1160.25" y="616" />
              <mxPoint x="1160.25" y="628" />
              <mxPoint x="1160" y="628" />
            </Array>
          </mxGeometry>
        </mxCell>
        <mxCell id="30" style="shape=filledEdge;strokeWidth=2;strokeColor=#d2d2d2;fillColor=#FFFFFF;startArrow=none;startFill=0;startSize=6;endArrow=none;endFill=0;endSize=6;rounded=1;gliffyId=695;edgeStyle=orthogonalEdgeStyle;fontSize=12;fontColor=#d2d2d2;shadow=0;opacity=100;spacingLeft=2;spacingRight=0;" parent="2" source="162" target="168" edge="1">
          <mxGeometry width="1" height="23" relative="1" as="geometry">
            <Array as="points">
              <mxPoint x="1227.75" y="664" />
              <mxPoint x="1220.0833740234375" y="664" />
              <mxPoint x="1212.4166259765625" y="664" />
              <mxPoint x="1204.75" y="664" />
            </Array>
          </mxGeometry>
        </mxCell>
        <mxCell id="31" style="shape=filledEdge;strokeWidth=2;strokeColor=#cc0000;fillColor=none;startArrow=none;startFill=0;startSize=6;endArrow=none;endFill=0;endSize=6;rounded=1;gliffyId=743;edgeStyle=orthogonalEdgeStyle;" parent="2" source="163" target="169" edge="1">
          <mxGeometry width="1" height="23" relative="1" as="geometry">
            <Array as="points" />
          </mxGeometry>
        </mxCell>
        <mxCell id="32" style="shape=filledEdge;strokeWidth=2;strokeColor=#d2d2d2;fillColor=#FFFFFF;startArrow=none;startFill=0;startSize=6;endArrow=none;endFill=0;endSize=6;rounded=1;gliffyId=568;edgeStyle=orthogonalEdgeStyle;fontSize=12;fontColor=#d2d2d2;shadow=0;opacity=100;spacingLeft=2;spacingRight=0;" parent="2" source="164" target="171" edge="1">
          <mxGeometry width="1" height="23" relative="1" as="geometry">
            <Array as="points">
              <mxPoint x="538.5" y="1036.5" />
              <mxPoint x="532.125" y="1036.5" />
              <mxPoint x="532.125" y="1035.5" />
              <mxPoint x="525.75" y="1035.5" />
            </Array>
          </mxGeometry>
        </mxCell>
        <mxCell id="33" style="shape=filledEdge;strokeWidth=2;strokeColor=#d2d2d2;fillColor=#FFFFFF;startArrow=none;startFill=0;startSize=6;endArrow=none;endFill=0;endSize=6;rounded=1;gliffyId=859;edgeStyle=orthogonalEdgeStyle;fontSize=12;fontColor=#d2d2d2;shadow=0;opacity=100;spacingLeft=2;spacingRight=0;" parent="2" source="165" target="172" edge="1">
          <mxGeometry width="1" height="23" relative="1" as="geometry">
            <Array as="points">
              <mxPoint x="1206" y="1036.5" />
              <mxPoint x="1199.625" y="1036.5" />
              <mxPoint x="1199.625" y="1035.5" />
              <mxPoint x="1193.25" y="1035.5" />
            </Array>
          </mxGeometry>
        </mxCell>
        <mxCell id="34" style="shape=filledEdge;strokeWidth=2;strokeColor=#cc0000;fillColor=none;startArrow=none;startFill=0;startSize=6;endArrow=none;endFill=0;endSize=6;rounded=1;gliffyId=583;edgeStyle=orthogonalEdgeStyle;" parent="2" source="171" target="51" edge="1">
          <mxGeometry width="1" height="23" relative="1" as="geometry">
            <Array as="points">
              <mxPoint x="387" y="1011.5" />
              <mxPoint x="387" y="990.75" />
              <mxPoint x="303.5" y="990.75" />
              <mxPoint x="303.5" y="970" />
            </Array>
          </mxGeometry>
        </mxCell>
        <mxCell id="35" style="shape=filledEdge;strokeWidth=2;strokeColor=#cc0000;fillColor=none;startArrow=none;startFill=0;startSize=6;endArrow=none;endFill=0;endSize=6;rounded=1;gliffyId=858;edgeStyle=orthogonalEdgeStyle;" parent="2" source="172" target="52" edge="1">
          <mxGeometry width="1" height="23" relative="1" as="geometry">
            <Array as="points">
              <mxPoint x="1054.5" y="1011.5" />
              <mxPoint x="1054.5" y="990.75" />
              <mxPoint x="971" y="990.75" />
              <mxPoint x="971" y="970" />
            </Array>
          </mxGeometry>
        </mxCell>
        <mxCell id="36" value="&lt;div style=&#39;width: 67.08px;height:auto;word-break: break-word;&#39;&gt;&lt;div align=&quot;center&quot;&gt;&lt;span style=&quot;font-family: Arial; font-size: 12px; text-decoration: none; line-height: 0;&quot;&gt;&lt;span style=&quot;text-decoration: none; line-height: 14px;&quot; class=&quot;&quot;&gt;A_SAT&lt;/span&gt;&lt;/span&gt;&lt;/div&gt;&lt;/div&gt;" style="shape=rect;rounded=1;arcSize=15;absoluteArcSize=1;shadow=0;strokeWidth=2;fillColor=#ea9999;strokeColor=#333333;opacity=100.0;html=1;nl2Br=0;verticalAlign=middle;align=center;spacingLeft=1.46;spacingRight=0;whiteSpace=wrap;gliffyId=15;" parent="2" vertex="1">
          <mxGeometry x="42.25" y="289" width="73" height="30" as="geometry" />
        </mxCell>
        <mxCell id="38" value="&lt;div style=&#39;width: 141.0px;height:auto;word-break: break-word;&#39;&gt;&lt;div align=&quot;center&quot;&gt;&lt;span style=&quot;font-family: Arial; font-size: 12px; text-decoration: none; line-height: 0;&quot;&gt;&lt;span style=&quot;text-decoration: none; line-height: 14px;&quot;&gt;Sat that needs deletion detection&lt;/span&gt;&lt;/span&gt;&lt;/div&gt;&lt;/div&gt;" style="shape=rect;rounded=1;arcSize=15;absoluteArcSize=1;shadow=0;strokeWidth=2;fillColor=#ea9999;strokeColor=#000000;opacity=100.0;html=1;nl2Br=0;verticalAlign=middle;align=center;spacingLeft=3.0;spacingRight=0;whiteSpace=wrap;gliffyId=597;" parent="2" vertex="1">
          <mxGeometry x="814.38" y="127" width="150" height="30" as="geometry" />
        </mxCell>
        <mxCell id="39" value="&lt;div style=&#39;width: 73.8px;height:auto;word-break: break-word;&#39;&gt;&lt;div align=&quot;center&quot;&gt;&lt;span style=&quot;font-family: Arial; font-size: 12px; text-decoration: none; line-height: 0;&quot;&gt;&lt;span style=&quot;text-decoration: none; line-height: 14px;&quot;&gt;A_B_ESAT&lt;/span&gt;&lt;/span&gt;&lt;/div&gt;&lt;/div&gt;" style="shape=rect;rounded=1;arcSize=15;absoluteArcSize=1;shadow=0;strokeWidth=2;fillColor=#ea9999;strokeColor=#333333;opacity=100.0;html=1;nl2Br=0;verticalAlign=middle;align=center;spacingLeft=1.6;spacingRight=0;whiteSpace=wrap;gliffyId=515;" parent="2" vertex="1">
          <mxGeometry x="409.5" y="579" width="80" height="30" as="geometry" />
        </mxCell>
        <mxCell id="40" value="&lt;div style=&#39;width: 73.8px;height:auto;word-break: break-word;&#39;&gt;&lt;div align=&quot;center&quot;&gt;&lt;span style=&quot;font-family: Arial; font-size: 12px; text-decoration: none; line-height: 0;&quot;&gt;&lt;span style=&quot;text-decoration: none; line-height: 14px;&quot;&gt;A_B_ESAT&lt;/span&gt;&lt;/span&gt;&lt;/div&gt;&lt;/div&gt;" style="shape=rect;rounded=1;arcSize=15;absoluteArcSize=1;shadow=0;strokeWidth=2;fillColor=#ea9999;strokeColor=#333333;opacity=100.0;html=1;nl2Br=0;verticalAlign=middle;align=center;spacingLeft=1.6;spacingRight=0;whiteSpace=wrap;gliffyId=693;" parent="2" vertex="1">
          <mxGeometry x="1120.25" y="586" width="80" height="30" as="geometry" />
        </mxCell>
        <mxCell id="o0Gcgj2iXJ9e7bKyXlry-235" style="edgeStyle=orthogonalEdgeStyle;shape=filledEdge;rounded=1;orthogonalLoop=1;jettySize=auto;html=1;labelBackgroundColor=default;strokeColor=#cc0000;strokeWidth=2;fontFamily=Helvetica;fontSize=11;fontColor=default;startArrow=none;startFill=0;endArrow=none;endFill=0;startSize=6;endSize=6;fillColor=none;" parent="2" source="41" target="169" edge="1">
          <mxGeometry relative="1" as="geometry" />
        </mxCell>
        <mxCell id="41" value="&lt;div style=&#39;width: 73.8px;height:auto;word-break: break-word;&#39;&gt;&lt;div align=&quot;center&quot;&gt;&lt;span style=&quot;font-family: Arial; font-size: 12px; text-decoration: none; line-height: 0;&quot;&gt;&lt;span style=&quot;text-decoration: none; line-height: 14px;&quot;&gt;A_B_ESAT&lt;/span&gt;&lt;/span&gt;&lt;/div&gt;&lt;/div&gt;" style="shape=rect;rounded=1;arcSize=15;absoluteArcSize=1;shadow=0;strokeWidth=2;fillColor=#ea9999;strokeColor=#333333;opacity=100.0;html=1;nl2Br=0;verticalAlign=middle;align=center;spacingLeft=1.6;spacingRight=0;whiteSpace=wrap;gliffyId=741;" parent="2" vertex="1">
          <mxGeometry x="403.5" y="1420" width="80" height="30" as="geometry" />
        </mxCell>
        <mxCell id="o0Gcgj2iXJ9e7bKyXlry-236" style="edgeStyle=orthogonalEdgeStyle;shape=filledEdge;rounded=1;orthogonalLoop=1;jettySize=auto;html=1;labelBackgroundColor=default;strokeColor=#cc0000;strokeWidth=2;fontFamily=Helvetica;fontSize=11;fontColor=default;startArrow=none;startFill=0;endArrow=none;endFill=0;startSize=6;endSize=6;fillColor=none;" parent="2" source="42" target="170" edge="1">
          <mxGeometry relative="1" as="geometry" />
        </mxCell>
        <mxCell id="42" value="&lt;div style=&#39;width: 73.8px;height:auto;word-break: break-word;&#39;&gt;&lt;div align=&quot;center&quot;&gt;&lt;span style=&quot;font-family: Arial; font-size: 12px; text-decoration: none; line-height: 0;&quot;&gt;&lt;span style=&quot;text-decoration: none; line-height: 14px;&quot;&gt;A_B_ESAT&lt;/span&gt;&lt;/span&gt;&lt;/div&gt;&lt;/div&gt;" style="shape=rect;rounded=1;arcSize=15;absoluteArcSize=1;shadow=0;strokeWidth=2;fillColor=#ea9999;strokeColor=#333333;opacity=100.0;html=1;nl2Br=0;verticalAlign=middle;align=center;spacingLeft=1.6;spacingRight=0;whiteSpace=wrap;gliffyId=784;" parent="2" vertex="1">
          <mxGeometry x="974" y="1415" width="80" height="30" as="geometry" />
        </mxCell>
        <mxCell id="43" value="&lt;div style=&#39;width: 67.08px;height:auto;word-break: break-word;&#39;&gt;&lt;div align=&quot;center&quot;&gt;&lt;span style=&quot;font-family: Arial; font-size: 12px; text-decoration: none; line-height: 0;&quot;&gt;&lt;span style=&quot;text-decoration: none; line-height: 14px;&quot; class=&quot;&quot;&gt;A_SAT&lt;/span&gt;&lt;/span&gt;&lt;/div&gt;&lt;/div&gt;" style="shape=rect;rounded=1;arcSize=15;absoluteArcSize=1;shadow=0;strokeWidth=2;fillColor=#ea9999;strokeColor=#333333;opacity=100.0;html=1;nl2Br=0;verticalAlign=middle;align=center;spacingLeft=1.46;spacingRight=0;whiteSpace=wrap;gliffyId=517;" parent="2" vertex="1">
          <mxGeometry x="39.5" y="649" width="73" height="30" as="geometry" />
        </mxCell>
        <mxCell id="44" value="&lt;div style=&#39;width: 67.08px;height:auto;word-break: break-word;&#39;&gt;&lt;div align=&quot;center&quot;&gt;&lt;span style=&quot;font-family: Arial; font-size: 12px; text-decoration: none; line-height: 0;&quot;&gt;&lt;span style=&quot;text-decoration: none; line-height: 14px;&quot;&gt;A_SAT1&lt;/span&gt;&lt;/span&gt;&lt;/div&gt;&lt;/div&gt;" style="shape=rect;rounded=1;arcSize=15;absoluteArcSize=1;shadow=0;strokeWidth=2;fillColor=#ea9999;strokeColor=#333333;opacity=100.0;html=1;nl2Br=0;verticalAlign=middle;align=center;spacingLeft=1.46;spacingRight=0;whiteSpace=wrap;gliffyId=691;" parent="2" vertex="1">
          <mxGeometry x="749.5" y="593" width="73" height="30" as="geometry" />
        </mxCell>
        <mxCell id="45" value="&lt;div style=&#39;width: 67.08px;height:auto;word-break: break-word;&#39;&gt;&lt;div align=&quot;center&quot;&gt;&lt;span style=&quot;font-family: Arial; font-size: 12px; text-decoration: none; line-height: 0;&quot;&gt;&lt;span style=&quot;text-decoration: none; line-height: 14px;&quot;&gt;A_SAT2&lt;/span&gt;&lt;/span&gt;&lt;/div&gt;&lt;/div&gt;" style="shape=rect;rounded=1;arcSize=15;absoluteArcSize=1;shadow=0;strokeWidth=2;fillColor=#ea9999;strokeColor=#333333;opacity=100.0;html=1;nl2Br=0;verticalAlign=middle;align=center;spacingLeft=1.46;spacingRight=0;whiteSpace=wrap;gliffyId=699;" parent="2" vertex="1">
          <mxGeometry x="719.5" y="650" width="73" height="30" as="geometry" />
        </mxCell>
        <mxCell id="46" value="&lt;div style=&#39;width: 67.08px;height:auto;word-break: break-word;&#39;&gt;&lt;div align=&quot;center&quot;&gt;&lt;span style=&quot;font-family: Arial; font-size: 12px; text-decoration: none; line-height: 0;&quot;&gt;&lt;span style=&quot;text-decoration: none; line-height: 14px;&quot; class=&quot;&quot;&gt;A_SAT&lt;/span&gt;&lt;/span&gt;&lt;/div&gt;&lt;/div&gt;" style="shape=rect;rounded=1;arcSize=15;absoluteArcSize=1;shadow=0;strokeWidth=2;fillColor=#ea9999;strokeColor=#333333;opacity=100.0;html=1;nl2Br=0;verticalAlign=middle;align=center;spacingLeft=1.46;spacingRight=0;whiteSpace=wrap;gliffyId=739;" parent="2" vertex="1">
          <mxGeometry x="53.25" y="1479" width="73" height="30" as="geometry" />
        </mxCell>
        <mxCell id="47" value="&lt;div style=&#39;width: 67.08px;height:auto;word-break: break-word;&#39;&gt;&lt;div align=&quot;center&quot;&gt;&lt;span style=&quot;font-family: Arial; font-size: 12px; text-decoration: none; line-height: 0;&quot;&gt;&lt;span style=&quot;text-decoration: none; line-height: 14px;&quot; class=&quot;&quot;&gt;A_SAT&lt;/span&gt;&lt;/span&gt;&lt;/div&gt;&lt;/div&gt;" style="shape=rect;rounded=1;arcSize=15;absoluteArcSize=1;shadow=0;strokeWidth=2;fillColor=#ea9999;strokeColor=#333333;opacity=100.0;html=1;nl2Br=0;verticalAlign=middle;align=center;spacingLeft=1.46;spacingRight=0;whiteSpace=wrap;gliffyId=782;" parent="2" vertex="1">
          <mxGeometry x="718.5" y="1479" width="73" height="30" as="geometry" />
        </mxCell>
        <mxCell id="48" value="&lt;div style=&#39;width: 67.08px;height:auto;word-break: break-word;&#39;&gt;&lt;div align=&quot;center&quot;&gt;&lt;span style=&quot;font-family: Arial; font-size: 12px; text-decoration: none; line-height: 0;&quot;&gt;&lt;span style=&quot;text-decoration: none; line-height: 14px;&quot; class=&quot;&quot;&gt;A_SAT&lt;/span&gt;&lt;/span&gt;&lt;/div&gt;&lt;/div&gt;" style="shape=rect;rounded=1;arcSize=15;absoluteArcSize=1;shadow=0;strokeWidth=2;fillColor=#ea9999;strokeColor=#333333;opacity=100.0;html=1;nl2Br=0;verticalAlign=middle;align=center;spacingLeft=1.46;spacingRight=0;whiteSpace=wrap;gliffyId=789;" parent="2" vertex="1">
          <mxGeometry x="1247" y="1474" width="73" height="30" as="geometry" />
        </mxCell>
        <mxCell id="49" value="&lt;div style=&#39;width: 67.08px;height:auto;word-break: break-word;&#39;&gt;&lt;div align=&quot;center&quot;&gt;&lt;span style=&quot;font-family: Arial; font-size: 12px; text-decoration: none; line-height: 0;&quot;&gt;&lt;span style=&quot;text-decoration: none; line-height: 14px;&quot; class=&quot;&quot;&gt;A_SAT&lt;/span&gt;&lt;/span&gt;&lt;/div&gt;&lt;/div&gt;" style="shape=rect;rounded=1;arcSize=15;absoluteArcSize=1;shadow=0;strokeWidth=2;fillColor=#ea9999;strokeColor=#333333;opacity=100.0;html=1;nl2Br=0;verticalAlign=middle;align=center;spacingLeft=1.46;spacingRight=0;whiteSpace=wrap;gliffyId=794;" parent="2" vertex="1">
          <mxGeometry x="46.75" y="1020" width="73" height="30" as="geometry" />
        </mxCell>
        <mxCell id="50" value="&lt;div style=&#39;width: 67.08px;height:auto;word-break: break-word;&#39;&gt;&lt;div align=&quot;center&quot;&gt;&lt;span style=&quot;font-family: Arial; font-size: 12px; text-decoration: none; line-height: 0;&quot;&gt;&lt;span style=&quot;text-decoration: none; line-height: 14px;&quot; class=&quot;&quot;&gt;A_SAT&lt;/span&gt;&lt;/span&gt;&lt;/div&gt;&lt;/div&gt;" style="shape=rect;rounded=1;arcSize=15;absoluteArcSize=1;shadow=0;strokeWidth=2;fillColor=#ea9999;strokeColor=#333333;opacity=100.0;html=1;nl2Br=0;verticalAlign=middle;align=center;spacingLeft=1.46;spacingRight=0;whiteSpace=wrap;gliffyId=856;" parent="2" vertex="1">
          <mxGeometry x="719.5" y="1019.5" width="73" height="30" as="geometry" />
        </mxCell>
        <mxCell id="51" value="&lt;div style=&#39;width: 73.8px;height:auto;word-break: break-word;&#39;&gt;&lt;div align=&quot;center&quot;&gt;&lt;span style=&quot;font-family: Arial; font-size: 12px; text-decoration: none; line-height: 0;&quot;&gt;&lt;span style=&quot;text-decoration: none; line-height: 14px;&quot;&gt;A_B_SAT&lt;/span&gt;&lt;/span&gt;&lt;/div&gt;&lt;/div&gt;" style="shape=rect;rounded=1;arcSize=15;absoluteArcSize=1;shadow=0;strokeWidth=2;fillColor=#ea9999;strokeColor=#333333;opacity=100.0;html=1;nl2Br=0;verticalAlign=middle;align=center;spacingLeft=1.6;spacingRight=0;whiteSpace=wrap;gliffyId=566;" parent="2" vertex="1">
          <mxGeometry x="263.5" y="940" width="80" height="30" as="geometry" />
        </mxCell>
        <mxCell id="52" value="&lt;div style=&#39;width: 73.8px;height:auto;word-break: break-word;&#39;&gt;&lt;div align=&quot;center&quot;&gt;&lt;span style=&quot;font-family: Arial; font-size: 12px; text-decoration: none; line-height: 0;&quot;&gt;&lt;span style=&quot;text-decoration: none; line-height: 14px;&quot;&gt;A_B_SAT&lt;/span&gt;&lt;/span&gt;&lt;/div&gt;&lt;/div&gt;" style="shape=rect;rounded=1;arcSize=15;absoluteArcSize=1;shadow=0;strokeWidth=2;fillColor=#ea9999;strokeColor=#333333;opacity=100.0;html=1;nl2Br=0;verticalAlign=middle;align=center;spacingLeft=1.6;spacingRight=0;whiteSpace=wrap;gliffyId=854;" parent="2" vertex="1">
          <mxGeometry x="931" y="940" width="80" height="30" as="geometry" />
        </mxCell>
        <mxCell id="53" value="1 Partition criteria in sat" style="shape=rect;shadow=0;strokeWidth=0;strokeColor=none;fillColor=#cccccc;opacity=100.0;nl2Br=0;verticalAlign=top;align=left;spacingLeft=25.52;spacingRight=0;spacingTop=1.0;spacingBottom=8;whiteSpace=wrap;gliffyId=345;fontSize=22;fontStyle=1;" parent="2" vertex="1">
          <mxGeometry x="27.5" y="70" width="670" height="40" as="geometry" />
        </mxCell>
        <mxCell id="54" value="2 Partition criteria in parent hub" style="shape=rect;shadow=0;strokeWidth=0;strokeColor=none;fillColor=#cccccc;opacity=100.0;nl2Br=0;verticalAlign=top;align=left;spacingLeft=25.52;spacingRight=0;spacingTop=1.0;spacingBottom=8;whiteSpace=wrap;gliffyId=348;fontSize=22;fontStyle=1;" parent="2" vertex="1">
          <mxGeometry x="32.25" y="430" width="638" height="40" as="geometry" />
        </mxCell>
        <mxCell id="55" value="3 Partition criteria in Sat of same hub" style="shape=rect;shadow=0;strokeWidth=0;strokeColor=none;fillColor=#cccccc;opacity=100.0;nl2Br=0;verticalAlign=top;align=left;spacingLeft=25.52;spacingRight=0;spacingTop=1.0;spacingBottom=8;whiteSpace=wrap;gliffyId=689;fontSize=22;fontStyle=1;" parent="2" vertex="1">
          <mxGeometry x="697.5" y="430" width="657" height="40" as="geometry" />
        </mxCell>
        <mxCell id="56" value="XL1 Partition criteria in linked hub" style="shape=rect;shadow=0;strokeWidth=0;strokeColor=none;fillColor=#cccccc;opacity=100.0;nl2Br=0;verticalAlign=top;align=left;spacingLeft=25.52;spacingRight=0;spacingTop=1.0;spacingBottom=8;whiteSpace=wrap;gliffyId=737;fontSize=22;fontStyle=1" parent="2" vertex="1">
          <mxGeometry x="46" y="1260" width="651" height="40" as="geometry" />
        </mxCell>
        <mxCell id="57" value="XL2 Partition criteria in sat of linked hub" style="shape=rect;shadow=0;strokeWidth=0;strokeColor=none;fillColor=#cccccc;opacity=100.0;nl2Br=0;verticalAlign=top;align=left;spacingLeft=25.52;spacingRight=0;spacingTop=1.0;spacingBottom=8;whiteSpace=wrap;gliffyId=780;fontSize=22;fontStyle=1;" parent="2" vertex="1">
          <mxGeometry x="711.25" y="1260" width="643" height="40" as="geometry" />
        </mxCell>
        <mxCell id="58" value="&lt;div style=&quot;width: 1200.36px;height:auto;word-break: break-word;&quot;&gt;&lt;div align=&quot;left&quot;&gt;&lt;span style=&quot;font-family: Helvetica; font-size: 24px; text-decoration: none; font-weight: bold; line-height: 24px;&quot;&gt;XL Variations demonstrate the possible depth of complexity&amp;nbsp;&lt;/span&gt;&lt;/div&gt;&lt;/div&gt;" style="shape=rect;shadow=0;strokeWidth=0;strokeColor=none;fillColor=#999999;opacity=100.0;html=1;nl2Br=0;verticalAlign=top;align=left;spacingLeft=52.32;spacingRight=0;spacingTop=1.0;spacingBottom=8;whiteSpace=wrap;gliffyId=819;" parent="2" vertex="1">
          <mxGeometry x="45.75" y="1200" width="1308" height="40" as="geometry" />
        </mxCell>
        <mxCell id="59" value="4 Partition criteria in dependent child key" style="shape=rect;shadow=0;strokeWidth=0;strokeColor=none;fillColor=#cccccc;opacity=100.0;nl2Br=0;verticalAlign=top;align=left;spacingLeft=25.52;spacingRight=0;spacingTop=1.0;spacingBottom=8;whiteSpace=wrap;gliffyId=562;fontSize=22;fontStyle=1;" parent="2" vertex="1">
          <mxGeometry x="32.25" y="800" width="638" height="40" as="geometry" />
        </mxCell>
        <mxCell id="60" value="5 Partition criteria in sat of direct link" style="shape=rect;shadow=0;strokeWidth=0;strokeColor=none;fillColor=#cccccc;opacity=100.0;nl2Br=0;verticalAlign=top;align=left;spacingLeft=25.52;spacingRight=0;spacingTop=1.0;spacingBottom=8;whiteSpace=wrap;gliffyId=852;fontSize=22;fontStyle=1;" parent="2" vertex="1">
          <mxGeometry x="699.75" y="800" width="638" height="40" as="geometry" />
        </mxCell>
        <mxCell id="61" value="&lt;div style=&#39;width: 54.6px;height:auto;word-break: break-word;&#39;&gt;&lt;div align=&quot;center&quot;&gt;&lt;span style=&quot;font-family: Arial; font-size: 12px; text-decoration: none; line-height: 0;&quot;&gt;&lt;span style=&quot;text-decoration: none; line-height: 14px;&quot; class=&quot;&quot;&gt;BK_A1&lt;/span&gt;&lt;/span&gt;&lt;/div&gt;&lt;/div&gt;" style="shape=rect;shadow=0;strokeWidth=2;fillColor=#FFFFFF;strokeColor=#000000;opacity=100.0;html=1;nl2Br=0;verticalAlign=middle;align=center;spacingLeft=1.2;spacingRight=0;whiteSpace=wrap;gliffyId=403;" parent="2" vertex="1">
          <mxGeometry x="116.25" y="140" width="60" height="30" as="geometry" />
        </mxCell>
        <mxCell id="62" value="&lt;div style=&#39;width: 54.6px;height:auto;word-break: break-word;&#39;&gt;&lt;div align=&quot;center&quot;&gt;&lt;span style=&quot;font-family: Arial; font-size: 12px; text-decoration: none; line-height: 0;&quot;&gt;&lt;span style=&quot;text-decoration: none; line-height: 14px;&quot;&gt;HK_A&lt;/span&gt;&lt;/span&gt;&lt;/div&gt;&lt;/div&gt;" style="shape=rect;shadow=0;strokeWidth=2;fillColor=default;strokeColor=#cc0000;opacity=100.0;html=1;nl2Br=0;verticalAlign=middle;align=center;spacingLeft=1.8;spacingRight=0;whiteSpace=wrap;gliffyId=461;fontSize=11;labelBackgroundColor=default;endArrow=block;rounded=0;startArrow=block;startFill=0;startSize=6;endFill=1;endSize=6;" parent="2" vertex="1">
          <mxGeometry x="48.75" y="140" width="60" height="30" as="geometry" />
        </mxCell>
        <mxCell id="65" value="&lt;div style=&#39;width: 54.6px;height:auto;word-break: break-word;&#39;&gt;&lt;div align=&quot;center&quot;&gt;&lt;span style=&quot;font-family: Arial; font-size: 12px; text-decoration: none; line-height: 0;&quot;&gt;&lt;span style=&quot;text-decoration: none; line-height: 14px;&quot;&gt;HK_B&lt;/span&gt;&lt;/span&gt;&lt;/div&gt;&lt;/div&gt;" style="shape=rect;shadow=0;strokeWidth=2;fillColor=#FFFFFF;strokeColor=#674ea7;opacity=100.0;html=1;nl2Br=0;verticalAlign=middle;align=center;spacingLeft=1.2;spacingRight=0;whiteSpace=wrap;gliffyId=507;" parent="2" vertex="1">
          <mxGeometry x="516" y="500" width="60" height="30" as="geometry" />
        </mxCell>
        <mxCell id="66" value="&lt;div style=&#39;width: 54.6px;height:auto;word-break: break-word;&#39;&gt;&lt;div align=&quot;center&quot;&gt;&lt;span style=&quot;font-family: Arial; font-size: 12px; text-decoration: none; line-height: 0;&quot;&gt;&lt;span style=&quot;text-decoration: none; line-height: 14px;&quot;&gt;HK_B&lt;/span&gt;&lt;/span&gt;&lt;/div&gt;&lt;/div&gt;" style="shape=rect;shadow=0;strokeWidth=2;fillColor=#FFFFFF;strokeColor=#674ea7;opacity=100.0;html=1;nl2Br=0;verticalAlign=middle;align=center;spacingLeft=1.2;spacingRight=0;whiteSpace=wrap;gliffyId=687;" parent="2" vertex="1">
          <mxGeometry x="1213" y="500" width="60" height="30" as="geometry" />
        </mxCell>
        <mxCell id="67" value="&lt;div style=&#39;width: 54.6px;height:auto;word-break: break-word;&#39;&gt;&lt;div align=&quot;center&quot;&gt;&lt;span style=&quot;font-family: Arial; font-size: 12px; text-decoration: none; line-height: 0;&quot;&gt;&lt;span style=&quot;text-decoration: none; line-height: 14px;&quot;&gt;HK_B&lt;/span&gt;&lt;/span&gt;&lt;/div&gt;&lt;/div&gt;" style="shape=rect;shadow=0;strokeWidth=2;fillColor=default;strokeColor=#cc0000;opacity=100.0;html=1;nl2Br=0;verticalAlign=middle;align=center;spacingLeft=1.8;spacingRight=0;whiteSpace=wrap;gliffyId=735;fontSize=11;labelBackgroundColor=default;endArrow=block;rounded=0;startArrow=block;startFill=0;startSize=6;endFill=1;endSize=6;" parent="2" vertex="1">
          <mxGeometry x="489.5" y="1330" width="60" height="30" as="geometry" />
        </mxCell>
        <mxCell id="68" value="&lt;div style=&#39;width: 54.6px;height:auto;word-break: break-word;&#39;&gt;&lt;div align=&quot;center&quot;&gt;&lt;span style=&quot;font-family: Arial; font-size: 12px; text-decoration: none; line-height: 0;&quot;&gt;&lt;span style=&quot;text-decoration: none; line-height: 14px;&quot;&gt;HK_B&lt;/span&gt;&lt;/span&gt;&lt;/div&gt;&lt;/div&gt;" style="shape=rect;shadow=0;strokeWidth=2;fillColor=default;strokeColor=#cc0000;opacity=100.0;html=1;nl2Br=0;verticalAlign=middle;align=center;spacingLeft=1.8;spacingRight=0;whiteSpace=wrap;gliffyId=778;fontSize=11;labelBackgroundColor=default;endArrow=block;rounded=0;startArrow=block;startFill=0;startSize=6;endFill=1;endSize=6;" parent="2" vertex="1">
          <mxGeometry x="1059.75" y="1330" width="60" height="30" as="geometry" />
        </mxCell>
        <mxCell id="69" value="&lt;div style=&#39;width: 73.8px;height:auto;word-break: break-word;&#39;&gt;&lt;div align=&quot;center&quot;&gt;&lt;span style=&quot;font-family: Arial; font-size: 12px; text-decoration: none; line-height: 0;&quot;&gt;&lt;span style=&quot;text-decoration: none; line-height: 14px;&quot;&gt;LK_A_B&lt;/span&gt;&lt;/span&gt;&lt;/div&gt;&lt;/div&gt;" style="shape=rect;shadow=0;strokeWidth=2;fillColor=default;strokeColor=#cc0000;opacity=100.0;html=1;nl2Br=0;verticalAlign=middle;align=center;spacingLeft=1.8;spacingRight=0;whiteSpace=wrap;gliffyId=509;fontSize=11;labelBackgroundColor=default;endArrow=block;rounded=0;startArrow=block;startFill=0;startSize=6;endFill=1;endSize=6;" parent="2" vertex="1">
          <mxGeometry x="409.5" y="500" width="80" height="30" as="geometry" />
        </mxCell>
        <mxCell id="70" value="&lt;div style=&#39;width: 73.8px;height:auto;word-break: break-word;&#39;&gt;&lt;div align=&quot;center&quot;&gt;&lt;span style=&quot;font-family: Arial; font-size: 12px; text-decoration: none; line-height: 0;&quot;&gt;&lt;span style=&quot;text-decoration: none; line-height: 14px;&quot;&gt;LK_A_B&lt;/span&gt;&lt;/span&gt;&lt;/div&gt;&lt;/div&gt;" style="shape=rect;shadow=0;strokeWidth=2;fillColor=default;strokeColor=#cc0000;opacity=100.0;html=1;nl2Br=0;verticalAlign=middle;align=center;spacingLeft=1.8;spacingRight=0;whiteSpace=wrap;gliffyId=685;fontSize=11;labelBackgroundColor=default;endArrow=block;rounded=0;startArrow=block;startFill=0;startSize=6;endFill=1;endSize=6;" parent="2" vertex="1">
          <mxGeometry x="1126.5" y="500" width="80" height="30" as="geometry" />
        </mxCell>
        <mxCell id="71" value="&lt;div style=&#39;width: 73.8px;height:auto;word-break: break-word;&#39;&gt;&lt;div align=&quot;center&quot;&gt;&lt;span style=&quot;font-family: Arial; font-size: 12px; text-decoration: none; line-height: 0;&quot;&gt;&lt;span style=&quot;text-decoration: none; line-height: 14px;&quot;&gt;LK_A_B&lt;/span&gt;&lt;/span&gt;&lt;/div&gt;&lt;/div&gt;" style="shape=rect;shadow=0;strokeWidth=2;fillColor=default;strokeColor=#cc0000;opacity=100.0;html=1;nl2Br=0;verticalAlign=middle;align=center;spacingLeft=1.8;spacingRight=0;whiteSpace=wrap;gliffyId=733;fontSize=11;labelBackgroundColor=default;endArrow=block;rounded=0;startArrow=block;startFill=0;startSize=6;endFill=1;endSize=6;" parent="2" vertex="1">
          <mxGeometry x="398" y="1330" width="80" height="30" as="geometry" />
        </mxCell>
        <mxCell id="72" value="&lt;div style=&#39;width: 73.8px;height:auto;word-break: break-word;&#39;&gt;&lt;div align=&quot;center&quot;&gt;&lt;span style=&quot;font-family: Arial; font-size: 12px; text-decoration: none; line-height: 0;&quot;&gt;&lt;span style=&quot;text-decoration: none; line-height: 14px;&quot;&gt;LK_A_B&lt;/span&gt;&lt;/span&gt;&lt;/div&gt;&lt;/div&gt;" style="shape=rect;shadow=0;strokeWidth=2;fillColor=default;strokeColor=#cc0000;opacity=100.0;html=1;nl2Br=0;verticalAlign=middle;align=center;spacingLeft=1.8;spacingRight=0;whiteSpace=wrap;gliffyId=776;fontSize=11;labelBackgroundColor=default;endArrow=block;rounded=0;startArrow=block;startFill=0;startSize=6;endFill=1;endSize=6;" parent="2" vertex="1">
          <mxGeometry x="970" y="1330" width="80" height="30" as="geometry" />
        </mxCell>
        <mxCell id="73" value="&lt;div style=&#39;width: 54.6px;height:auto;word-break: break-word;&#39;&gt;&lt;div align=&quot;center&quot;&gt;&lt;span style=&quot;font-family: Arial; font-size: 12px; text-decoration: none; line-height: 0;&quot;&gt;&lt;span style=&quot;text-decoration: none; line-height: 14px;&quot;&gt;HK_A&lt;/span&gt;&lt;/span&gt;&lt;/div&gt;&lt;/div&gt;" style="shape=rect;shadow=0;strokeWidth=2;fillColor=default;strokeColor=#cc0000;opacity=100.0;html=1;nl2Br=0;verticalAlign=middle;align=center;spacingLeft=1.8;spacingRight=0;whiteSpace=wrap;gliffyId=511;fontSize=11;labelBackgroundColor=default;endArrow=block;rounded=0;startArrow=block;startFill=0;startSize=6;endFill=1;endSize=6;" parent="2" vertex="1">
          <mxGeometry x="46" y="500" width="60" height="30" as="geometry" />
        </mxCell>
        <mxCell id="74" value="&lt;div style=&#39;width: 54.6px;height:auto;word-break: break-word;&#39;&gt;&lt;div align=&quot;center&quot;&gt;&lt;span style=&quot;font-family: Arial; font-size: 12px; text-decoration: none; line-height: 0;&quot;&gt;&lt;span style=&quot;text-decoration: none; line-height: 14px;&quot;&gt;HK_A&lt;/span&gt;&lt;/span&gt;&lt;/div&gt;&lt;/div&gt;" style="shape=rect;shadow=0;strokeWidth=2;fillColor=default;strokeColor=#cc0000;opacity=100.0;html=1;nl2Br=0;verticalAlign=middle;align=center;spacingLeft=1.8;spacingRight=0;whiteSpace=wrap;gliffyId=683;fontSize=11;labelBackgroundColor=default;endArrow=block;rounded=0;startArrow=block;startFill=0;startSize=6;endFill=1;endSize=6;" parent="2" vertex="1">
          <mxGeometry x="711.25" y="500" width="60" height="30" as="geometry" />
        </mxCell>
        <mxCell id="75" value="&lt;div style=&#39;width: 54.6px;height:auto;word-break: break-word;&#39;&gt;&lt;div align=&quot;center&quot;&gt;&lt;span style=&quot;font-family: Arial; font-size: 12px; text-decoration: none; line-height: 0;&quot;&gt;&lt;span style=&quot;text-decoration: none; line-height: 14px;&quot;&gt;HK_A&lt;/span&gt;&lt;/span&gt;&lt;/div&gt;&lt;/div&gt;" style="shape=rect;shadow=0;strokeWidth=2;fillColor=default;strokeColor=#cc0000;opacity=100.0;html=1;nl2Br=0;verticalAlign=middle;align=center;spacingLeft=1.8;spacingRight=0;whiteSpace=wrap;gliffyId=731;fontSize=11;labelBackgroundColor=default;endArrow=block;rounded=0;startArrow=block;startFill=0;startSize=6;endFill=1;endSize=6;" parent="2" vertex="1">
          <mxGeometry x="59.75" y="1330" width="60" height="30" as="geometry" />
        </mxCell>
        <mxCell id="76" value="&lt;div style=&#39;width: 54.6px;height:auto;word-break: break-word;&#39;&gt;&lt;div align=&quot;center&quot;&gt;&lt;span style=&quot;font-family: Arial; font-size: 12px; text-decoration: none; line-height: 0;&quot;&gt;&lt;span style=&quot;text-decoration: none; line-height: 14px;&quot;&gt;HK_A&lt;/span&gt;&lt;/span&gt;&lt;/div&gt;&lt;/div&gt;" style="shape=rect;shadow=0;strokeWidth=2;fillColor=default;strokeColor=#cc0000;opacity=100.0;html=1;nl2Br=0;verticalAlign=middle;align=center;spacingLeft=1.8;spacingRight=0;whiteSpace=wrap;gliffyId=774;fontSize=11;labelBackgroundColor=default;endArrow=block;rounded=0;startArrow=block;startFill=0;startSize=6;endFill=1;endSize=6;" parent="2" vertex="1">
          <mxGeometry x="725" y="1330" width="60" height="30" as="geometry" />
        </mxCell>
        <mxCell id="77" value="&lt;div style=&#39;width: 54.6px;height:auto;word-break: break-word;&#39;&gt;&lt;div align=&quot;center&quot;&gt;&lt;span style=&quot;font-family: Arial; font-size: 12px; text-decoration: none; line-height: 0;&quot;&gt;&lt;span style=&quot;text-decoration: none; line-height: 14px;&quot; class=&quot;&quot;&gt;BK_A1&lt;/span&gt;&lt;/span&gt;&lt;/div&gt;&lt;/div&gt;" style="shape=rect;shadow=0;strokeWidth=2;fillColor=#FFFFFF;strokeColor=#3333FF;opacity=100.0;html=1;nl2Br=0;verticalAlign=middle;align=center;spacingLeft=2.12;spacingRight=0;whiteSpace=wrap;gliffyId=513;" parent="2" vertex="1">
          <mxGeometry x="113.5" y="500" width="60" height="30" as="geometry" />
        </mxCell>
        <mxCell id="78" value="&lt;div style=&#39;width: 54.6px;height:auto;word-break: break-word;&#39;&gt;&lt;div align=&quot;center&quot;&gt;&lt;span style=&quot;font-family: Arial; font-size: 12px; text-decoration: none; line-height: 0;&quot;&gt;&lt;span style=&quot;text-decoration: none; line-height: 14px;&quot; class=&quot;&quot;&gt;BK_A1&lt;/span&gt;&lt;/span&gt;&lt;/div&gt;&lt;/div&gt;" style="shape=rect;shadow=0;strokeWidth=2;fillColor=#FFFFFF;strokeColor=#000000;opacity=100.0;html=1;nl2Br=0;verticalAlign=middle;align=center;spacingLeft=1.2;spacingRight=0;whiteSpace=wrap;gliffyId=681;" parent="2" vertex="1">
          <mxGeometry x="778.75" y="500" width="60" height="30" as="geometry" />
        </mxCell>
        <mxCell id="79" value="&lt;div style=&#39;width: 54.6px;height:auto;word-break: break-word;&#39;&gt;&lt;div align=&quot;center&quot;&gt;&lt;span style=&quot;font-family: Arial; font-size: 12px; text-decoration: none; line-height: 0;&quot;&gt;&lt;span style=&quot;text-decoration: none; line-height: 14px;&quot; class=&quot;&quot;&gt;BK_A1&lt;/span&gt;&lt;/span&gt;&lt;/div&gt;&lt;/div&gt;" style="shape=rect;shadow=0;strokeWidth=2;fillColor=#FFFFFF;strokeColor=#000000;opacity=100.0;html=1;nl2Br=0;verticalAlign=middle;align=center;spacingLeft=1.2;spacingRight=0;whiteSpace=wrap;gliffyId=729;" parent="2" vertex="1">
          <mxGeometry x="127.25" y="1330" width="60" height="30" as="geometry" />
        </mxCell>
        <mxCell id="80" value="&lt;div style=&#39;width: 54.6px;height:auto;word-break: break-word;&#39;&gt;&lt;div align=&quot;center&quot;&gt;&lt;span style=&quot;font-family: Arial; font-size: 12px; text-decoration: none; line-height: 0;&quot;&gt;&lt;span style=&quot;text-decoration: none; line-height: 14px;&quot; class=&quot;&quot;&gt;BK_A1&lt;/span&gt;&lt;/span&gt;&lt;/div&gt;&lt;/div&gt;" style="shape=rect;shadow=0;strokeWidth=2;fillColor=#FFFFFF;strokeColor=#000000;opacity=100.0;html=1;nl2Br=0;verticalAlign=middle;align=center;spacingLeft=1.2;spacingRight=0;whiteSpace=wrap;gliffyId=772;" parent="2" vertex="1">
          <mxGeometry x="792.5" y="1330" width="60" height="30" as="geometry" />
        </mxCell>
        <mxCell id="81" value="&lt;div style=&#39;width: 54.6px;height:auto;word-break: break-word;&#39;&gt;&lt;div align=&quot;center&quot;&gt;&lt;span style=&quot;font-family: Arial; font-size: 12px; text-decoration: none; line-height: 0;&quot;&gt;&lt;span style=&quot;text-decoration: none; line-height: 14px;&quot; class=&quot;&quot;&gt;BK_A1&lt;/span&gt;&lt;/span&gt;&lt;/div&gt;&lt;/div&gt;" style="shape=rect;shadow=0;strokeWidth=2;fillColor=#FFFFFF;strokeColor=#000000;opacity=100.0;html=1;nl2Br=0;verticalAlign=middle;align=center;spacingLeft=1.2;spacingRight=0;whiteSpace=wrap;gliffyId=554;" parent="2" vertex="1">
          <mxGeometry x="113.5" y="870" width="60" height="30" as="geometry" />
        </mxCell>
        <mxCell id="82" value="&lt;div style=&#39;width: 54.6px;height:auto;word-break: break-word;&#39;&gt;&lt;div align=&quot;center&quot;&gt;&lt;span style=&quot;font-family: Arial; font-size: 12px; text-decoration: none; line-height: 0;&quot;&gt;&lt;span style=&quot;text-decoration: none; line-height: 14px;&quot; class=&quot;&quot;&gt;BK_A1&lt;/span&gt;&lt;/span&gt;&lt;/div&gt;&lt;/div&gt;" style="shape=rect;shadow=0;strokeWidth=2;fillColor=#FFFFFF;strokeColor=#000000;opacity=100.0;html=1;nl2Br=0;verticalAlign=middle;align=center;spacingLeft=1.2;spacingRight=0;whiteSpace=wrap;gliffyId=850;" parent="2" vertex="1">
          <mxGeometry x="781" y="870" width="60" height="30" as="geometry" />
        </mxCell>
        <mxCell id="83" value="&lt;div style=&#39;width: 49.8px;height:auto;word-break: break-word;&#39;&gt;&lt;div align=&quot;center&quot;&gt;&lt;span style=&quot;font-family: Arial; font-size: 12px; text-decoration: none; line-height: 0;&quot;&gt;&lt;span style=&quot;text-decoration: none; line-height: 14px;&quot;&gt;HK_A&lt;/span&gt;&lt;/span&gt;&lt;/div&gt;&lt;/div&gt;" style="shape=rect;shadow=0;strokeWidth=2;fillColor=default;strokeColor=#cc0000;opacity=100.0;html=1;nl2Br=0;verticalAlign=middle;align=center;spacingLeft=1.8;spacingRight=0;whiteSpace=wrap;gliffyId=556;fontSize=11;labelBackgroundColor=default;endArrow=block;rounded=0;startArrow=block;startFill=0;startSize=6;endFill=1;endSize=6;" parent="2" vertex="1">
          <mxGeometry x="46" y="870" width="55" height="30" as="geometry" />
        </mxCell>
        <mxCell id="84" value="&lt;div style=&#39;width: 49.8px;height:auto;word-break: break-word;&#39;&gt;&lt;div align=&quot;center&quot;&gt;&lt;span style=&quot;font-family: Arial; font-size: 12px; text-decoration: none; line-height: 0;&quot;&gt;&lt;span style=&quot;text-decoration: none; line-height: 14px;&quot;&gt;HK_A&lt;/span&gt;&lt;/span&gt;&lt;/div&gt;&lt;/div&gt;" style="shape=rect;shadow=0;strokeWidth=2;fillColor=default;strokeColor=#cc0000;opacity=100.0;html=1;nl2Br=0;verticalAlign=middle;align=center;spacingLeft=1.8;spacingRight=0;whiteSpace=wrap;gliffyId=848;fontSize=11;labelBackgroundColor=default;endArrow=block;rounded=0;startArrow=block;startFill=0;startSize=6;endFill=1;endSize=6;" parent="2" vertex="1">
          <mxGeometry x="713.5" y="870" width="55" height="30" as="geometry" />
        </mxCell>
        <mxCell id="85" value="&lt;div style=&#39;width: 73.8px;height:auto;word-break: break-word;&#39;&gt;&lt;div align=&quot;center&quot;&gt;&lt;span style=&quot;font-family: Arial; font-size: 12px; text-decoration: none; line-height: 0;&quot;&gt;&lt;span style=&quot;text-decoration: none; line-height: 14px;&quot;&gt;LK_A_B&lt;/span&gt;&lt;/span&gt;&lt;/div&gt;&lt;/div&gt;" style="shape=rect;shadow=0;strokeWidth=2;fillColor=default;strokeColor=#cc0000;opacity=100.0;html=1;nl2Br=0;verticalAlign=middle;align=center;spacingLeft=1.8;spacingRight=0;whiteSpace=wrap;gliffyId=558;fontSize=11;labelBackgroundColor=default;endArrow=block;rounded=0;startArrow=block;startFill=0;startSize=6;endFill=1;endSize=6;" parent="2" vertex="1">
          <mxGeometry x="268.5" y="870" width="80" height="30" as="geometry" />
        </mxCell>
        <mxCell id="86" value="&lt;div style=&#39;width: 73.8px;height:auto;word-break: break-word;&#39;&gt;&lt;div align=&quot;center&quot;&gt;&lt;span style=&quot;font-family: Arial; font-size: 12px; text-decoration: none; line-height: 0;&quot;&gt;&lt;span style=&quot;text-decoration: none; line-height: 14px;&quot;&gt;LK_A_B&lt;/span&gt;&lt;/span&gt;&lt;/div&gt;&lt;/div&gt;" style="shape=rect;shadow=0;strokeWidth=2;fillColor=default;strokeColor=#cc0000;opacity=100.0;html=1;nl2Br=0;verticalAlign=middle;align=center;spacingLeft=1.8;spacingRight=0;whiteSpace=wrap;gliffyId=846;fontSize=11;labelBackgroundColor=default;endArrow=block;rounded=0;startArrow=block;startFill=0;startSize=6;endFill=1;endSize=6;" parent="2" vertex="1">
          <mxGeometry x="936" y="870" width="80" height="30" as="geometry" />
        </mxCell>
        <mxCell id="87" value="&lt;div style=&#39;width: 54.6px;height:auto;word-break: break-word;&#39;&gt;&lt;div align=&quot;center&quot;&gt;&lt;span style=&quot;font-family: Arial; font-size: 12px; text-decoration: none; line-height: 0;&quot;&gt;&lt;span style=&quot;text-decoration: none; line-height: 14px;&quot;&gt;HK_B&lt;/span&gt;&lt;/span&gt;&lt;/div&gt;&lt;/div&gt;" style="shape=rect;shadow=0;strokeWidth=2;fillColor=#FFFFFF;strokeColor=#674ea7;opacity=100.0;html=1;nl2Br=0;verticalAlign=middle;align=center;spacingLeft=1.2;spacingRight=0;whiteSpace=wrap;gliffyId=560;" parent="2" vertex="1">
          <mxGeometry x="502.25" y="870" width="60" height="30" as="geometry" />
        </mxCell>
        <mxCell id="88" value="&lt;div style=&#39;width: 54.6px;height:auto;word-break: break-word;&#39;&gt;&lt;div align=&quot;center&quot;&gt;&lt;span style=&quot;font-family: Arial; font-size: 12px; text-decoration: none; line-height: 0;&quot;&gt;&lt;span style=&quot;text-decoration: none; line-height: 14px;&quot;&gt;HK_B&lt;/span&gt;&lt;/span&gt;&lt;/div&gt;&lt;/div&gt;" style="shape=rect;shadow=0;strokeWidth=2;fillColor=default;strokeColor=#cc0000;opacity=100.0;html=1;nl2Br=0;verticalAlign=middle;align=center;spacingLeft=1.8;spacingRight=0;whiteSpace=wrap;gliffyId=844;fontSize=11;labelBackgroundColor=default;endArrow=block;rounded=0;startArrow=block;startFill=0;startSize=6;endFill=1;endSize=6;" parent="2" vertex="1">
          <mxGeometry x="1169.75" y="870" width="60" height="30" as="geometry" />
        </mxCell>
        <mxCell id="89" value="&lt;div style=&#39;width: 54.6px;height:auto;word-break: break-word;&#39;&gt;&lt;div align=&quot;center&quot;&gt;&lt;span style=&quot;font-family: Arial; font-size: 12px; text-decoration: none; line-height: 0;&quot;&gt;&lt;span style=&quot;text-decoration: none; line-height: 14px;&quot;&gt;BK_A2&lt;/span&gt;&lt;/span&gt;&lt;/div&gt;&lt;/div&gt;" style="shape=rect;shadow=0;strokeWidth=2;fillColor=#FFFFFF;strokeColor=#000000;opacity=100.0;html=1;nl2Br=0;verticalAlign=middle;align=center;spacingLeft=1.2;spacingRight=0;whiteSpace=wrap;gliffyId=405;" parent="2" vertex="1">
          <mxGeometry x="181.25" y="140" width="60" height="30" as="geometry" />
        </mxCell>
        <mxCell id="90" value="&lt;div style=&#39;width: 54.6px;height:auto;word-break: break-word;&#39;&gt;&lt;div align=&quot;center&quot;&gt;&lt;span style=&quot;font-family: Arial; font-size: 12px; text-decoration: none; line-height: 0;&quot;&gt;&lt;span style=&quot;text-decoration: none; line-height: 14px;&quot;&gt;CT_A1&lt;/span&gt;&lt;/span&gt;&lt;/div&gt;&lt;/div&gt;" style="shape=rect;shadow=0;strokeWidth=2;fillColor=#FFFFFF;strokeColor=#3333FF;opacity=100.0;html=1;nl2Br=0;verticalAlign=middle;align=center;spacingLeft=2.12;spacingRight=0;whiteSpace=wrap;gliffyId=644;" parent="2" vertex="1">
          <mxGeometry x="246.25" y="140" width="60" height="30" as="geometry" />
        </mxCell>
        <mxCell id="91" value="&lt;div style=&#39;width: 54.6px;height:auto;word-break: break-word;&#39;&gt;&lt;div align=&quot;center&quot;&gt;&lt;span style=&quot;font-family: Arial; font-size: 12px; text-decoration: none; line-height: 0;&quot;&gt;&lt;span style=&quot;text-decoration: none; line-height: 14px;&quot;&gt;CT_A2&lt;/span&gt;&lt;/span&gt;&lt;/div&gt;&lt;/div&gt;" style="shape=rect;shadow=0;strokeWidth=2;fillColor=#FFFFFF;strokeColor=#000000;opacity=100.0;html=1;nl2Br=0;verticalAlign=middle;align=center;spacingLeft=1.2;spacingRight=0;whiteSpace=wrap;gliffyId=646;" parent="2" vertex="1">
          <mxGeometry x="313.5" y="140" width="60" height="30" as="geometry" />
        </mxCell>
        <mxCell id="92" value="&lt;div style=&#39;width: 54.6px;height:auto;word-break: break-word;&#39;&gt;&lt;div align=&quot;center&quot;&gt;&lt;span style=&quot;font-family: Arial; font-size: 12px; text-decoration: none; line-height: 0;&quot;&gt;&lt;span style=&quot;text-decoration: none; line-height: 14px;&quot;&gt;CT_A1&lt;/span&gt;&lt;/span&gt;&lt;/div&gt;&lt;/div&gt;" style="shape=rect;shadow=0;strokeWidth=2;fillColor=#FFFFFF;strokeColor=#000000;opacity=100.0;html=1;nl2Br=0;verticalAlign=middle;align=center;spacingLeft=1.2;spacingRight=0;whiteSpace=wrap;gliffyId=652;" parent="2" vertex="1">
          <mxGeometry x="243.5" y="500" width="60" height="30" as="geometry" />
        </mxCell>
        <mxCell id="93" value="&lt;div style=&#39;width: 54.6px;height:auto;word-break: break-word;&#39;&gt;&lt;div align=&quot;center&quot;&gt;&lt;span style=&quot;font-family: Arial; font-size: 12px; text-decoration: none; line-height: 0;&quot;&gt;&lt;span style=&quot;text-decoration: none; line-height: 14px;&quot;&gt;CT_A2&lt;/span&gt;&lt;/span&gt;&lt;/div&gt;&lt;/div&gt;" style="shape=rect;shadow=0;strokeWidth=2;fillColor=#FFFFFF;strokeColor=#000000;opacity=100.0;html=1;nl2Br=0;verticalAlign=middle;align=center;spacingLeft=1.2;spacingRight=0;whiteSpace=wrap;gliffyId=654;" parent="2" vertex="1">
          <mxGeometry x="310.75" y="500" width="60" height="30" as="geometry" />
        </mxCell>
        <mxCell id="94" value="&lt;div style=&#39;width: 54.6px;height:auto;word-break: break-word;&#39;&gt;&lt;div align=&quot;center&quot;&gt;&lt;span style=&quot;font-family: Arial; font-size: 12px; text-decoration: none; line-height: 0;&quot;&gt;&lt;span style=&quot;text-decoration: none; line-height: 14px;&quot;&gt;CT_A2&lt;/span&gt;&lt;/span&gt;&lt;/div&gt;&lt;/div&gt;" style="shape=rect;shadow=0;strokeWidth=2;fillColor=#FFFFFF;strokeColor=#000000;opacity=100.0;html=1;nl2Br=0;verticalAlign=middle;align=center;spacingLeft=1.2;spacingRight=0;whiteSpace=wrap;gliffyId=677;" parent="2" vertex="1">
          <mxGeometry x="976" y="500" width="60" height="30" as="geometry" />
        </mxCell>
        <mxCell id="95" value="&lt;div style=&#39;width: 54.6px;height:auto;word-break: break-word;&#39;&gt;&lt;div align=&quot;center&quot;&gt;&lt;span style=&quot;font-family: Arial; font-size: 12px; text-decoration: none; line-height: 0;&quot;&gt;&lt;span style=&quot;text-decoration: none; line-height: 14px;&quot;&gt;CT_A1&lt;/span&gt;&lt;/span&gt;&lt;/div&gt;&lt;/div&gt;" style="shape=rect;shadow=0;strokeWidth=2;fillColor=#FFFFFF;strokeColor=#3333FF;opacity=100.0;html=1;nl2Br=0;verticalAlign=middle;align=center;spacingLeft=2.12;spacingRight=0;whiteSpace=wrap;gliffyId=679;" parent="2" vertex="1">
          <mxGeometry x="908.75" y="500" width="60" height="30" as="geometry" />
        </mxCell>
        <mxCell id="96" value="&lt;div style=&#39;width: 54.6px;height:auto;word-break: break-word;&#39;&gt;&lt;div align=&quot;center&quot;&gt;&lt;span style=&quot;font-family: Arial; font-size: 12px; text-decoration: none; line-height: 0;&quot;&gt;&lt;span style=&quot;text-decoration: none; line-height: 14px;&quot;&gt;CT_A3&lt;/span&gt;&lt;/span&gt;&lt;/div&gt;&lt;/div&gt;" style="shape=rect;shadow=0;strokeWidth=2;fillColor=#FFFFFF;strokeColor=#000000;opacity=100.0;html=1;nl2Br=0;verticalAlign=middle;align=center;spacingLeft=1.2;spacingRight=0;whiteSpace=wrap;gliffyId=701;" parent="2" vertex="1">
          <mxGeometry x="1041.25" y="500" width="60" height="30" as="geometry" />
        </mxCell>
        <mxCell id="97" value="&lt;div style=&#39;width: 54.6px;height:auto;word-break: break-word;&#39;&gt;&lt;div align=&quot;center&quot;&gt;&lt;span style=&quot;font-family: Arial; font-size: 12px; text-decoration: none; line-height: 0;&quot;&gt;&lt;span style=&quot;text-decoration: none; line-height: 14px;&quot;&gt;CT_A2&lt;/span&gt;&lt;/span&gt;&lt;/div&gt;&lt;/div&gt;" style="shape=rect;shadow=0;strokeWidth=2;fillColor=#FFFFFF;strokeColor=#000000;opacity=100.0;html=1;nl2Br=0;verticalAlign=middle;align=center;spacingLeft=1.2;spacingRight=0;whiteSpace=wrap;gliffyId=725;" parent="2" vertex="1">
          <mxGeometry x="324.5" y="1330" width="60" height="30" as="geometry" />
        </mxCell>
        <mxCell id="98" value="&lt;div style=&#39;width: 54.6px;height:auto;word-break: break-word;&#39;&gt;&lt;div align=&quot;center&quot;&gt;&lt;span style=&quot;font-family: Arial; font-size: 12px; text-decoration: none; line-height: 0;&quot;&gt;&lt;span style=&quot;text-decoration: none; line-height: 14px;&quot;&gt;CT_A1&lt;/span&gt;&lt;/span&gt;&lt;/div&gt;&lt;/div&gt;" style="shape=rect;shadow=0;strokeWidth=2;fillColor=#FFFFFF;strokeColor=#000000;opacity=100.0;html=1;nl2Br=0;verticalAlign=middle;align=center;spacingLeft=1.2;spacingRight=0;whiteSpace=wrap;gliffyId=727;" parent="2" vertex="1">
          <mxGeometry x="257.25" y="1330" width="60" height="30" as="geometry" />
        </mxCell>
        <mxCell id="99" value="&lt;div style=&#39;width: 54.6px;height:auto;word-break: break-word;&#39;&gt;&lt;div align=&quot;center&quot;&gt;&lt;span style=&quot;font-family: Arial; font-size: 12px; text-decoration: none; line-height: 0;&quot;&gt;&lt;span style=&quot;text-decoration: none; line-height: 14px;&quot;&gt;CT_A1&lt;/span&gt;&lt;/span&gt;&lt;/div&gt;&lt;/div&gt;" style="shape=rect;shadow=0;strokeWidth=2;fillColor=#FFFFFF;strokeColor=#000000;opacity=100.0;html=1;nl2Br=0;verticalAlign=middle;align=center;spacingLeft=1.2;spacingRight=0;whiteSpace=wrap;gliffyId=768;" parent="2" vertex="1">
          <mxGeometry x="865" y="1330" width="60" height="30" as="geometry" />
        </mxCell>
        <mxCell id="100" value="&lt;div style=&#39;width: 54.6px;height:auto;word-break: break-word;&#39;&gt;&lt;div align=&quot;center&quot;&gt;&lt;span style=&quot;font-family: Arial; font-size: 12px; text-decoration: none; line-height: 0;&quot;&gt;&lt;span style=&quot;text-decoration: none; line-height: 14px;&quot;&gt;CT_B1&lt;/span&gt;&lt;/span&gt;&lt;/div&gt;&lt;/div&gt;" style="shape=rect;shadow=0;strokeWidth=2;fillColor=#FFFFFF;strokeColor=#3333FF;opacity=100.0;html=1;nl2Br=0;verticalAlign=middle;align=center;spacingLeft=2.12;spacingRight=0;whiteSpace=wrap;gliffyId=791;" parent="2" vertex="1">
          <mxGeometry x="1253.5" y="1330" width="60" height="30" as="geometry" />
        </mxCell>
        <mxCell id="101" value="&lt;div style=&#39;width: 54.6px;height:auto;word-break: break-word;&#39;&gt;&lt;div align=&quot;center&quot;&gt;&lt;span style=&quot;font-family: Arial; font-size: 12px; text-decoration: none; line-height: 0;&quot;&gt;&lt;span style=&quot;text-decoration: none; line-height: 14px;&quot;&gt;BK_A2&lt;/span&gt;&lt;/span&gt;&lt;/div&gt;&lt;/div&gt;" style="shape=rect;shadow=0;strokeWidth=2;fillColor=#FFFFFF;strokeColor=#000000;opacity=100.0;html=1;nl2Br=0;verticalAlign=middle;align=center;spacingLeft=1.2;spacingRight=0;whiteSpace=wrap;gliffyId=505;" parent="2" vertex="1">
          <mxGeometry x="178.5" y="500" width="60" height="30" as="geometry" />
        </mxCell>
        <mxCell id="102" value="&lt;div style=&#39;width: 54.6px;height:auto;word-break: break-word;&#39;&gt;&lt;div align=&quot;center&quot;&gt;&lt;span style=&quot;font-family: Arial; font-size: 12px; text-decoration: none; line-height: 0;&quot;&gt;&lt;span style=&quot;text-decoration: none; line-height: 14px;&quot;&gt;BK_A2&lt;/span&gt;&lt;/span&gt;&lt;/div&gt;&lt;/div&gt;" style="shape=rect;shadow=0;strokeWidth=2;fillColor=#FFFFFF;strokeColor=#000000;opacity=100.0;html=1;nl2Br=0;verticalAlign=middle;align=center;spacingLeft=1.2;spacingRight=0;whiteSpace=wrap;gliffyId=675;" parent="2" vertex="1">
          <mxGeometry x="843.75" y="500" width="60" height="30" as="geometry" />
        </mxCell>
        <mxCell id="103" value="&lt;div style=&#39;width: 54.6px;height:auto;word-break: break-word;&#39;&gt;&lt;div align=&quot;center&quot;&gt;&lt;span style=&quot;font-family: Arial; font-size: 12px; text-decoration: none; line-height: 0;&quot;&gt;&lt;span style=&quot;text-decoration: none; line-height: 14px;&quot;&gt;BK_A2&lt;/span&gt;&lt;/span&gt;&lt;/div&gt;&lt;/div&gt;" style="shape=rect;shadow=0;strokeWidth=2;fillColor=#FFFFFF;strokeColor=#000000;opacity=100.0;html=1;nl2Br=0;verticalAlign=middle;align=center;spacingLeft=1.2;spacingRight=0;whiteSpace=wrap;gliffyId=723;" parent="2" vertex="1">
          <mxGeometry x="192.25" y="1330" width="60" height="30" as="geometry" />
        </mxCell>
        <mxCell id="104" value="&lt;div style=&#39;width: 54.6px;height:auto;word-break: break-word;&#39;&gt;&lt;div align=&quot;center&quot;&gt;&lt;span style=&quot;font-family: Arial; font-size: 12px; text-decoration: none; line-height: 0;&quot;&gt;&lt;span style=&quot;text-decoration: none; line-height: 14px;&quot;&gt;BK_A2&lt;/span&gt;&lt;/span&gt;&lt;/div&gt;&lt;/div&gt;" style="shape=rect;shadow=0;strokeWidth=2;fillColor=#FFFFFF;strokeColor=#000000;opacity=100.0;html=1;nl2Br=0;verticalAlign=middle;align=center;spacingLeft=1.2;spacingRight=0;whiteSpace=wrap;gliffyId=552;" parent="2" vertex="1">
          <mxGeometry x="178.5" y="870" width="60" height="30" as="geometry" />
        </mxCell>
        <mxCell id="105" value="&lt;div style=&#39;width: 54.6px;height:auto;word-break: break-word;&#39;&gt;&lt;div align=&quot;center&quot;&gt;&lt;span style=&quot;font-family: Arial; font-size: 12px; text-decoration: none; line-height: 0;&quot;&gt;&lt;span style=&quot;text-decoration: none; line-height: 14px;&quot;&gt;BK_A2&lt;/span&gt;&lt;/span&gt;&lt;/div&gt;&lt;/div&gt;" style="shape=rect;shadow=0;strokeWidth=2;fillColor=#FFFFFF;strokeColor=#000000;opacity=100.0;html=1;nl2Br=0;verticalAlign=middle;align=center;spacingLeft=1.2;spacingRight=0;whiteSpace=wrap;gliffyId=842;" parent="2" vertex="1">
          <mxGeometry x="846" y="870" width="60" height="30" as="geometry" />
        </mxCell>
        <mxCell id="106" value="&lt;div style=&#39;width: 55.56px;height:auto;word-break: break-word;&#39;&gt;&lt;div align=&quot;center&quot;&gt;&lt;span style=&quot;font-family: Arial; font-size: 12px; text-decoration: none; line-height: 0;&quot;&gt;&lt;span style=&quot;text-decoration: none; line-height: 14px;&quot;&gt;DC_AB1&lt;/span&gt;&lt;/span&gt;&lt;/div&gt;&lt;/div&gt;" style="shape=rect;shadow=0;strokeWidth=2;fillColor=#FFFFFF;strokeColor=#3333FF;opacity=100.0;html=1;nl2Br=0;verticalAlign=middle;align=center;spacingLeft=2.12;spacingRight=0;whiteSpace=wrap;gliffyId=573;" parent="2" vertex="1">
          <mxGeometry x="348.5" y="870" width="61" height="30" as="geometry" />
        </mxCell>
        <mxCell id="107" value="&lt;div style=&#39;width: 55.56px;height:auto;word-break: break-word;&#39;&gt;&lt;div align=&quot;center&quot;&gt;&lt;span style=&quot;font-family: Arial; font-size: 12px; text-decoration: none; line-height: 0;&quot;&gt;&lt;span style=&quot;text-decoration: none; line-height: 14px;&quot;&gt;CT_AB1&lt;/span&gt;&lt;/span&gt;&lt;/div&gt;&lt;/div&gt;" style="shape=rect;shadow=0;strokeWidth=2;fillColor=#FFFFFF;strokeColor=#3333FF;opacity=100.0;html=1;nl2Br=0;verticalAlign=middle;align=center;spacingLeft=2.12;spacingRight=0;whiteSpace=wrap;gliffyId=840;" parent="2" vertex="1">
          <mxGeometry x="1016" y="870" width="61" height="30" as="geometry" />
        </mxCell>
        <mxCell id="108" value="&lt;div style=&#39;width: 147.0px;height:auto;word-break: break-word;&#39;&gt;&lt;div align=&quot;center&quot;&gt;&lt;span style=&quot;font-family: Arial; font-size: 12px; line-height: 0;&quot;&gt;&lt;span style=&quot;line-height: 14px;&quot; class=&quot;&quot;&gt;BK_ Business key&lt;/span&gt;&lt;/span&gt;&lt;/div&gt;&lt;div align=&quot;center&quot;&gt;&lt;span style=&quot;font-family: Arial; font-size: 12px; line-height: 0;&quot;&gt;&lt;span style=&quot;line-height: 14px;&quot; class=&quot;&quot;&gt;DC: Dependent Child Key&lt;/span&gt;&lt;/span&gt;&lt;/div&gt;&lt;div align=&quot;center&quot;&gt;&lt;span style=&quot;font-family: Arial; font-size: 12px; line-height: 0;&quot;&gt;&lt;span style=&quot;line-height: 14px;&quot; class=&quot;&quot;&gt;CT: Content field for sat&lt;/span&gt;&lt;/span&gt;&lt;/div&gt;&lt;/div&gt;" style="text;html=1;nl2Br=0;html=1;nl2Br=0;verticalAlign=middle;align=center;spacingLeft=0.0;spacingRight=0;whiteSpace=wrap;gliffyId=640;" parent="2" vertex="1">
          <mxGeometry x="808.63" y="70" width="150" height="42" as="geometry" />
        </mxCell>
        <mxCell id="109" value="&lt;div style=&#39;width: 69.0px;height:auto;word-break: break-word;&#39;&gt;&lt;div align=&quot;center&quot;&gt;&lt;span style=&quot;font-family: Arial; font-size: 12px; text-decoration: none; line-height: 0;&quot;&gt;&lt;span style=&quot;text-decoration: none; line-height: 14px;&quot;&gt;DC_AB2&lt;/span&gt;&lt;/span&gt;&lt;/div&gt;&lt;/div&gt;" style="shape=rect;shadow=0;strokeWidth=2;fillColor=#FFFFFF;strokeColor=#000000;opacity=100.0;html=1;nl2Br=0;verticalAlign=middle;align=center;spacingLeft=1.5;spacingRight=0;whiteSpace=wrap;gliffyId=576;" parent="2" vertex="1">
          <mxGeometry x="416" y="870" width="75" height="30" as="geometry" />
        </mxCell>
        <mxCell id="110" style="shape=filledEdge;strokeWidth=2;strokeColor=#cccccc;fillColor=none;startArrow=none;startFill=0;startSize=6;endArrow=none;endFill=0;endSize=6;rounded=0;curved=1;edgeStyle=orthogonalEdgeStyle;gliffyId=799;edgeStyle=orthogonalEdgeStyle;dashed=1;dashPattern=1 1;entryX=1;entryY=0.25;entryDx=0;entryDy=0;exitX=0.25;exitY=1;exitDx=0;exitDy=0;" parent="2" source="94" target="44" edge="1">
          <mxGeometry width="142" height="65" relative="1" as="geometry" />
        </mxCell>
        <mxCell id="111" style="shape=filledEdge;strokeWidth=2;strokeColor=#cccccc;fillColor=none;startArrow=none;startFill=0;startSize=6;endArrow=none;endFill=0;endSize=6;rounded=0;curved=1;edgeStyle=orthogonalEdgeStyle;gliffyId=801;edgeStyle=orthogonalEdgeStyle;dashed=1;dashPattern=1 1;entryX=1;entryY=0.25;entryDx=0;entryDy=0;exitX=0.5;exitY=1;exitDx=0;exitDy=0;" parent="2" source="95" target="44" edge="1">
          <mxGeometry width="142" height="65" relative="1" as="geometry" />
        </mxCell>
        <mxCell id="113" style="shape=filledEdge;strokeWidth=2;strokeColor=#cccccc;fillColor=none;startArrow=none;startFill=0;startSize=6;endArrow=none;endFill=0;endSize=6;rounded=0;curved=1;edgeStyle=orthogonalEdgeStyle;gliffyId=862;edgeStyle=orthogonalEdgeStyle;" parent="2" source="107" target="52" edge="1">
          <mxGeometry width="142" height="65" relative="1" as="geometry">
            <Array as="points">
              <mxPoint x="1054" y="900" />
              <mxPoint x="1054" y="955" />
              <mxPoint x="1011" y="955" />
            </Array>
          </mxGeometry>
        </mxCell>
        <mxCell id="114" value="&lt;div style=&quot;width: 98.76px;height:auto;word-break: break-word;&quot;&gt;&lt;div align=&quot;center&quot;&gt;&lt;span style=&quot;font-family: Arial; font-size: 12px; text-decoration: none; line-height: 0;&quot;&gt;&lt;span style=&quot;text-decoration: none; line-height: 14px;&quot;&gt;partition criteria&lt;/span&gt;&lt;/span&gt;&lt;/div&gt;&lt;/div&gt;" style="shape=rect;shadow=0;strokeWidth=2;fillColor=#FFFFFF;strokeColor=#3333FF;opacity=100.0;html=1;nl2Br=0;verticalAlign=middle;align=center;spacingLeft=2.12;spacingRight=0;whiteSpace=wrap;gliffyId=408;" parent="2" vertex="1">
          <mxGeometry x="837.63" y="291" width="106" height="30" as="geometry" />
        </mxCell>
        <mxCell id="115" value="&lt;div style=&#39;width: 83.4px;height:auto;word-break: break-word;&#39;&gt;&lt;div align=&quot;center&quot;&gt;&lt;span style=&quot;font-family: Arial; font-size: 12px; text-decoration: none; line-height: 0;&quot;&gt;&lt;span style=&quot;text-decoration: none; line-height: 14px;&quot;&gt;data vault key&lt;/span&gt;&lt;/span&gt;&lt;/div&gt;&lt;/div&gt;" style="shape=rect;shadow=0;strokeWidth=2;fillColor=default;strokeColor=#cc0000;opacity=100.0;html=1;nl2Br=0;verticalAlign=middle;align=center;spacingLeft=1.8;spacingRight=0;whiteSpace=wrap;gliffyId=463;labelBackgroundColor=default;endArrow=block;fontSize=11;rounded=0;startArrow=block;startFill=0;startSize=6;endFill=1;endSize=6;" parent="2" vertex="1">
          <mxGeometry x="830.13" y="169" width="109" height="30" as="geometry" />
        </mxCell>
        <mxCell id="117" style="shape=filledEdge;strokeWidth=2;strokeColor=#cc0000;fillColor=none;startArrow=block;startFill=0;startSize=6;endArrow=block;endFill=1;endSize=6;rounded=0;gliffyId=432;exitX=0.5;exitY=1.0;exitPerimeter=0;entryX=0.5;entryY=0.0;entryPerimeter=0;edgeStyle=orthogonalEdgeStyle;" parent="2" source="62" target="36" edge="1">
          <mxGeometry width="28" height="23" relative="1" as="geometry">
            <Array as="points">
              <mxPoint x="78.75" y="170" />
              <mxPoint x="78.75" y="289" />
            </Array>
          </mxGeometry>
        </mxCell>
        <mxCell id="119" style="shape=filledEdge;strokeWidth=2;strokeColor=#cc0000;fillColor=none;startArrow=block;startFill=0;startSize=6;endArrow=block;endFill=1;endSize=6;rounded=0;gliffyId=501;exitX=0.5;exitY=1.0;exitPerimeter=0;entryX=0.5;entryY=0.0;entryPerimeter=0;" parent="2" source="69" target="39" edge="1">
          <mxGeometry width="28" height="23" relative="1" as="geometry" />
        </mxCell>
        <mxCell id="120" style="shape=filledEdge;strokeWidth=2;strokeColor=#cc0000;fillColor=none;startArrow=block;startFill=0;startSize=6;endArrow=block;endFill=1;endSize=6;rounded=0;gliffyId=674;exitX=0.5;exitY=1.0;exitPerimeter=0;entryX=0.5;entryY=0.0;entryPerimeter=0;" parent="2" source="70" target="40" edge="1">
          <mxGeometry width="28" height="23" relative="1" as="geometry">
            <Array as="points">
              <mxPoint x="1166.5" y="530" />
              <mxPoint x="1160.25" y="586" />
            </Array>
          </mxGeometry>
        </mxCell>
        <mxCell id="121" style="shape=filledEdge;strokeWidth=2;strokeColor=#cc0000;fillColor=none;startArrow=block;startFill=0;startSize=6;endArrow=block;endFill=1;endSize=6;rounded=0;gliffyId=722;exitX=0.5;exitY=1.0;exitPerimeter=0;entryX=0.5;entryY=0.0;entryPerimeter=0;edgeStyle=orthogonalEdgeStyle;" parent="2" source="71" target="41" edge="1">
          <mxGeometry width="28" height="23" relative="1" as="geometry" />
        </mxCell>
        <mxCell id="122" style="shape=filledEdge;strokeWidth=2;strokeColor=#cc0000;fillColor=none;startArrow=block;startFill=0;startSize=6;endArrow=block;endFill=1;endSize=6;rounded=0;gliffyId=765;exitX=0.5;exitY=1.0;exitPerimeter=0;entryX=0.5;entryY=0.0;entryPerimeter=0;" parent="2" source="72" target="42" edge="1">
          <mxGeometry width="28" height="23" relative="1" as="geometry" />
        </mxCell>
        <mxCell id="123" style="shape=filledEdge;strokeWidth=2;strokeColor=#cc0000;fillColor=none;startArrow=block;startFill=0;startSize=6;endArrow=block;endFill=1;endSize=6;rounded=0;gliffyId=502;exitX=0.5;exitY=1.0;exitPerimeter=0;entryX=0.5;entryY=0.0;entryPerimeter=0;edgeStyle=orthogonalEdgeStyle;" parent="2" source="73" target="43" edge="1">
          <mxGeometry width="28" height="23" relative="1" as="geometry">
            <Array as="points">
              <mxPoint x="76" y="530" />
              <mxPoint x="76" y="649" />
            </Array>
          </mxGeometry>
        </mxCell>
        <mxCell id="124" style="shape=filledEdge;strokeWidth=2;strokeColor=#cc0000;fillColor=none;startArrow=block;startFill=0;startSize=6;endArrow=block;endFill=1;endSize=6;rounded=0;gliffyId=673;exitX=0.7071067690849304;exitY=1.0;exitPerimeter=0;entryX=0.5;entryY=0.0;entryPerimeter=0;" parent="2" source="74" target="44" edge="1">
          <mxGeometry width="28" height="23" relative="1" as="geometry">
            <Array as="points">
              <mxPoint x="753.6763916015625" y="530" />
            </Array>
          </mxGeometry>
        </mxCell>
        <mxCell id="125" style="shape=filledEdge;strokeWidth=2;strokeColor=#cc0000;fillColor=none;startArrow=block;startFill=0;startSize=6;endArrow=block;endFill=1;endSize=6;rounded=0;gliffyId=704;exitX=0.2928932309150696;exitY=1.0;exitPerimeter=0;entryX=0.2928932309150696;entryY=0.0;entryPerimeter=0;" parent="2" source="74" target="45" edge="1">
          <mxGeometry width="28" height="23" relative="1" as="geometry">
            <Array as="points">
              <mxPoint x="728.8236083984375" y="530" />
              <mxPoint x="744.6312255859375" y="658" />
            </Array>
          </mxGeometry>
        </mxCell>
        <mxCell id="126" style="shape=filledEdge;strokeWidth=2;strokeColor=#cc0000;fillColor=none;startArrow=block;startFill=0;startSize=6;endArrow=block;endFill=1;endSize=6;rounded=0;gliffyId=721;exitX=0.5;exitY=1.0;exitPerimeter=0;entryX=0.5;entryY=0.0;entryPerimeter=0;edgeStyle=orthogonalEdgeStyle;" parent="2" source="75" target="46" edge="1">
          <mxGeometry width="28" height="23" relative="1" as="geometry">
            <Array as="points">
              <mxPoint x="89.75" y="1360" />
              <mxPoint x="89.75" y="1479" />
            </Array>
          </mxGeometry>
        </mxCell>
        <mxCell id="127" style="shape=filledEdge;strokeWidth=2;strokeColor=#cc0000;fillColor=none;startArrow=block;startFill=0;startSize=6;endArrow=block;endFill=1;endSize=6;rounded=0;gliffyId=764;exitX=0.5;exitY=1.0;exitPerimeter=0;entryX=0.5;entryY=0.0;entryPerimeter=0;edgeStyle=orthogonalEdgeStyle;" parent="2" source="76" target="47" edge="1">
          <mxGeometry width="28" height="23" relative="1" as="geometry">
            <Array as="points">
              <mxPoint x="755" y="1360" />
              <mxPoint x="755" y="1479" />
            </Array>
          </mxGeometry>
        </mxCell>
        <mxCell id="128" value="&lt;div style=&#39;width: 54.6px;height:auto;word-break: break-word;&#39;&gt;&lt;div align=&quot;center&quot;&gt;&lt;span style=&quot;font-family: Arial; font-size: 12px; text-decoration: none; line-height: 0;&quot;&gt;&lt;span style=&quot;text-decoration: none; line-height: 14px;&quot;&gt;BK_B1&lt;/span&gt;&lt;/span&gt;&lt;/div&gt;&lt;/div&gt;" style="shape=rect;shadow=0;strokeWidth=2;fillColor=#FFFFFF;strokeColor=#333333;opacity=100.0;html=1;nl2Br=0;verticalAlign=middle;align=center;spacingLeft=1.2;spacingRight=0;whiteSpace=wrap;gliffyId=503;" parent="2" vertex="1">
          <mxGeometry x="586" y="500" width="60" height="30" as="geometry" />
        </mxCell>
        <mxCell id="129" value="&lt;div style=&#39;width: 54.6px;height:auto;word-break: break-word;&#39;&gt;&lt;div align=&quot;center&quot;&gt;&lt;span style=&quot;font-family: Arial; font-size: 12px; text-decoration: none; line-height: 0;&quot;&gt;&lt;span style=&quot;text-decoration: none; line-height: 14px;&quot;&gt;BK_B1&lt;/span&gt;&lt;/span&gt;&lt;/div&gt;&lt;/div&gt;" style="shape=rect;shadow=0;strokeWidth=2;fillColor=#FFFFFF;strokeColor=#333333;opacity=100.0;html=1;nl2Br=0;verticalAlign=middle;align=center;spacingLeft=1.2;spacingRight=0;whiteSpace=wrap;gliffyId=671;" parent="2" vertex="1">
          <mxGeometry x="1283" y="500" width="60" height="30" as="geometry" />
        </mxCell>
        <mxCell id="130" value="&lt;div style=&#39;width: 54.6px;height:auto;word-break: break-word;&#39;&gt;&lt;div align=&quot;center&quot;&gt;&lt;span style=&quot;font-family: Arial; font-size: 12px; text-decoration: none; line-height: 0;&quot;&gt;&lt;span style=&quot;text-decoration: none; line-height: 14px;&quot;&gt;BK_B1&lt;/span&gt;&lt;/span&gt;&lt;/div&gt;&lt;/div&gt;" style="shape=rect;shadow=0;strokeWidth=2;fillColor=#FFFFFF;strokeColor=#3333FF;opacity=100.0;html=1;nl2Br=0;verticalAlign=middle;align=center;spacingLeft=2.12;spacingRight=0;whiteSpace=wrap;gliffyId=719;" parent="2" vertex="1">
          <mxGeometry x="556" y="1330" width="60" height="30" as="geometry" />
        </mxCell>
        <mxCell id="131" value="&lt;div style=&#39;width: 54.6px;height:auto;word-break: break-word;&#39;&gt;&lt;div align=&quot;center&quot;&gt;&lt;span style=&quot;font-family: Arial; font-size: 12px; text-decoration: none; line-height: 0;&quot;&gt;&lt;span style=&quot;text-decoration: none; line-height: 14px;&quot;&gt;BK_B1&lt;/span&gt;&lt;/span&gt;&lt;/div&gt;&lt;/div&gt;" style="shape=rect;shadow=0;strokeWidth=2;fillColor=#FFFFFF;strokeColor=#000000;opacity=100.0;html=1;nl2Br=0;verticalAlign=middle;align=center;spacingLeft=1.2;spacingRight=0;whiteSpace=wrap;gliffyId=762;" parent="2" vertex="1">
          <mxGeometry x="1126.5" y="1330" width="60" height="30" as="geometry" />
        </mxCell>
        <mxCell id="132" value="&lt;div style=&#39;width: 54.6px;height:auto;word-break: break-word;&#39;&gt;&lt;div align=&quot;center&quot;&gt;&lt;span style=&quot;font-family: Arial; font-size: 12px; text-decoration: none; line-height: 0;&quot;&gt;&lt;span style=&quot;text-decoration: none; line-height: 14px;&quot;&gt;BK_B1&lt;/span&gt;&lt;/span&gt;&lt;/div&gt;&lt;/div&gt;" style="shape=rect;shadow=0;strokeWidth=2;fillColor=#FFFFFF;strokeColor=#333333;opacity=100.0;html=1;nl2Br=0;verticalAlign=middle;align=center;spacingLeft=1.2;spacingRight=0;whiteSpace=wrap;gliffyId=548;" parent="2" vertex="1">
          <mxGeometry x="572.25" y="870" width="60" height="30" as="geometry" />
        </mxCell>
        <mxCell id="133" value="&lt;div style=&#39;width: 54.6px;height:auto;word-break: break-word;&#39;&gt;&lt;div align=&quot;center&quot;&gt;&lt;span style=&quot;font-family: Arial; font-size: 12px; text-decoration: none; line-height: 0;&quot;&gt;&lt;span style=&quot;text-decoration: none; line-height: 14px;&quot;&gt;BK_B1&lt;/span&gt;&lt;/span&gt;&lt;/div&gt;&lt;/div&gt;" style="shape=rect;shadow=0;strokeWidth=2;fillColor=#FFFFFF;strokeColor=#333333;opacity=100.0;html=1;nl2Br=0;verticalAlign=middle;align=center;spacingLeft=1.2;spacingRight=0;whiteSpace=wrap;gliffyId=836;" parent="2" vertex="1">
          <mxGeometry x="1239.75" y="870" width="60" height="30" as="geometry" />
        </mxCell>
        <mxCell id="134" style="shape=filledEdge;strokeWidth=2;strokeColor=#cc0000;fillColor=none;startArrow=block;startFill=0;startSize=6;endArrow=block;endFill=1;endSize=6;rounded=0;gliffyId=551;exitX=0.5;exitY=1.0;exitPerimeter=0;entryX=0.5;entryY=0.0;entryPerimeter=0;" parent="2" source="85" target="51" edge="1">
          <mxGeometry width="28" height="23" relative="1" as="geometry">
            <Array as="points">
              <mxPoint x="308.5" y="900" />
              <mxPoint x="303.5" y="940" />
            </Array>
          </mxGeometry>
        </mxCell>
        <mxCell id="135" style="shape=filledEdge;strokeWidth=2;strokeColor=#cc0000;fillColor=none;startArrow=block;startFill=0;startSize=6;endArrow=block;endFill=1;endSize=6;rounded=0;gliffyId=798;exitX=0.6227272748947144;exitY=1.0;exitPerimeter=0;entryX=0.5;entryY=0.0;entryPerimeter=0;" parent="2" source="83" target="49" edge="1">
          <mxGeometry width="28" height="23" relative="1" as="geometry">
            <Array as="points">
              <mxPoint x="80.25" y="900" />
              <mxPoint x="82.5" y="1013.5" />
            </Array>
          </mxGeometry>
        </mxCell>
        <mxCell id="136" style="shape=filledEdge;strokeWidth=2;strokeColor=#cc0000;fillColor=none;startArrow=block;startFill=0;startSize=6;endArrow=block;endFill=1;endSize=6;rounded=0;gliffyId=834;exitX=0.6227272748947144;exitY=1.0;exitPerimeter=0;entryX=0.5;entryY=0.0;entryPerimeter=0;" parent="2" source="84" target="50" edge="1">
          <mxGeometry width="28" height="23" relative="1" as="geometry">
            <Array as="points">
              <mxPoint x="747.75" y="900" />
              <mxPoint x="756" y="1013.5" />
            </Array>
          </mxGeometry>
        </mxCell>
        <mxCell id="137" style="shape=filledEdge;strokeWidth=2;strokeColor=#cc0000;fillColor=none;startArrow=block;startFill=0;startSize=6;endArrow=block;endFill=1;endSize=6;rounded=0;gliffyId=835;exitX=0.5;exitY=1.0;exitPerimeter=0;entryX=0.5;entryY=0.0;entryPerimeter=0;" parent="2" source="86" target="52" edge="1">
          <mxGeometry width="28" height="23" relative="1" as="geometry">
            <Array as="points">
              <mxPoint x="976" y="900" />
              <mxPoint x="971" y="940" />
            </Array>
          </mxGeometry>
        </mxCell>
        <mxCell id="139" style="shape=filledEdge;strokeWidth=2;strokeColor=#3333FF;fillColor=none;startArrow=oval;startFill=1;startSize=6;endArrow=none;endFill=0;endSize=6;rounded=0;gliffyId=670;exitX=0.8801369667053223;exitY=0.0;exitPerimeter=0;" parent="2" source="44" edge="1">
          <mxGeometry width="70" height="54" relative="1" as="geometry">
            <mxPoint x="933" y="530" as="targetPoint" />
            <Array as="points">
              <mxPoint x="849.75" y="579" />
            </Array>
          </mxGeometry>
        </mxCell>
        <mxCell id="140" style="shape=filledEdge;strokeWidth=2;strokeColor=#3333FF;fillColor=none;startArrow=none;startFill=0;startSize=6;endArrow=oval;endFill=1;endSize=6;rounded=0;gliffyId=747;exitX=0.7071067690849304;exitY=1;exitPerimeter=0;entryX=0.5;entryY=0;entryPerimeter=0;exitDx=0;exitDy=0;entryDx=0;entryDy=0;" parent="2" source="130" target="163" edge="1">
          <mxGeometry width="70" height="54" relative="1" as="geometry" />
        </mxCell>
        <mxCell id="141" style="shape=filledEdge;strokeWidth=2;strokeColor=#cc0000;fillColor=none;startArrow=none;startFill=0;startSize=6;endArrow=none;endFill=0;endSize=6;rounded=1;gliffyId=761;entryX=0.0;entryY=0.7071067690849304;entryPerimeter=0;edgeStyle=elbowEdgeStyle;" parent="2" source="3" target="48" edge="1">
          <mxGeometry width="70" height="54" relative="1" as="geometry" />
        </mxCell>
        <mxCell id="142" style="shape=filledEdge;strokeWidth=2;strokeColor=#3333FF;fillColor=none;startArrow=none;startFill=0;startSize=6;endArrow=oval;endFill=1;endSize=6;rounded=0;gliffyId=793;exitX=0.5;exitY=1;exitPerimeter=0;entryX=0.5;entryY=0;entryPerimeter=0;exitDx=0;exitDy=0;entryDx=0;entryDy=0;" parent="2" source="100" target="48" edge="1">
          <mxGeometry width="70" height="54" relative="1" as="geometry" />
        </mxCell>
        <mxCell id="143" value="&quot;Delete&quot; all active sat entries, where HK_A not in stage but CT_A1 value is in stage (0 hop)" style="shape=note;size=10;shadow=0;strokeWidth=1;fillColor=#FFFFFF;strokeColor=#000000;opacity=100.0;nl2Br=0;verticalAlign=middle;align=center;spacingLeft=2.4285715;spacingRight=0;whiteSpace=wrap;gliffyId=430;" parent="2" vertex="1">
          <mxGeometry x="48.75" y="360" width="290.25" height="50" as="geometry" />
        </mxCell>
        <mxCell id="145" value="&lt;div style=&quot;width: 201.0px;height:auto;word-break: break-word;&quot;&gt;&lt;div align=&quot;center&quot;&gt;&lt;span style=&quot;font-family: Arial; font-size: 12px; text-decoration: none; line-height: 0;&quot;&gt;&lt;span style=&quot;text-decoration: none; line-height: 14px;&quot;&gt;&quot;Delete&quot; all active esat entries&lt;/span&gt;&lt;/span&gt;&lt;/div&gt;&lt;div align=&quot;center&quot;&gt;&lt;span style=&quot;font-family: Arial; font-size: 12px; text-decoration: none; line-height: 0;&quot;&gt;&lt;span style=&quot;text-decoration: none; line-height: 14px;&quot;&gt;where LK is not in stage&amp;nbsp; but HK_A is related to BK_A1 in stage (2 hop)&lt;/span&gt;&lt;/span&gt;&lt;/div&gt;&lt;/div&gt;" style="shape=note;size=10;shadow=0;strokeWidth=1;fillColor=#FFFFFF;strokeColor=#000000;opacity=100.0;html=1;nl2Br=0;verticalAlign=middle;align=center;spacingLeft=3.0;spacingRight=0;whiteSpace=wrap;gliffyId=497;" parent="2" vertex="1">
          <mxGeometry x="360" y="704" width="210" height="70" as="geometry" />
        </mxCell>
        <mxCell id="146" value="&lt;div style=&quot;width: 201.0px;height:auto;word-break: break-word;&quot;&gt;&lt;div align=&quot;center&quot;&gt;&lt;span style=&quot;font-family: Arial; font-size: 12px; text-decoration: none; line-height: 0;&quot;&gt;&lt;span style=&quot;text-decoration: none; line-height: 14px;&quot;&gt;&quot;Delete&quot; all active esat entries&lt;/span&gt;&lt;/span&gt;&lt;/div&gt;&lt;div align=&quot;center&quot;&gt;&lt;span style=&quot;font-family: Arial; font-size: 12px; text-decoration: none; line-height: 0;&quot;&gt;&lt;span style=&quot;text-decoration: none; line-height: 14px;&quot;&gt;where LK is not in stage&amp;nbsp; but HK_A is related to CT_A1&amp;nbsp;&amp;nbsp;values that appear in stage (2 hop)&lt;/span&gt;&lt;/span&gt;&lt;/div&gt;&lt;/div&gt;" style="shape=note;size=10;shadow=0;strokeWidth=1;fillColor=#FFFFFF;strokeColor=#000000;opacity=100.0;html=1;nl2Br=0;verticalAlign=middle;align=center;spacingLeft=3.0;spacingRight=0;whiteSpace=wrap;gliffyId=668;" parent="2" vertex="1">
          <mxGeometry x="1054" y="704" width="251.25" height="70" as="geometry" />
        </mxCell>
        <mxCell id="148" value="&lt;div style=&quot;width: 384.6px;height:auto;word-break: break-word;&quot;&gt;&lt;div align=&quot;center&quot;&gt;&lt;span style=&quot;font-family: Arial; font-size: 14px; font-weight: bold; line-height: 16.5px;&quot;&gt;Chain of joins to the partition cirteria &lt;/span&gt;&lt;/div&gt;&lt;div align=&quot;center&quot;&gt;&lt;span style=&quot;font-family: Arial; font-size: 14px; font-weight: bold; line-height: 16.5px;&quot;&gt;can be arbitrary long and might not be derivable from the relations in the model&lt;/span&gt;&lt;/div&gt;&lt;div align=&quot;center&quot;&gt;&lt;span style=&quot;font-family: Arial; font-size: 14px; font-weight: bold; line-height: 16.5px;&quot;&gt;(e.g 2 esat on same link, 2 link between same hubs)&lt;/span&gt;&lt;/div&gt;&lt;/div&gt;" style="shape=note;size=10;shadow=0;strokeWidth=1;fillColor=#FFFFFF;strokeColor=#000000;opacity=100.0;html=1;nl2Br=0;verticalAlign=middle;align=center;spacingLeft=5.7;spacingRight=0;whiteSpace=wrap;gliffyId=867;" parent="2" vertex="1">
          <mxGeometry x="753" y="2216" width="399" height="147" as="geometry" />
        </mxCell>
        <mxCell id="149" value="&lt;div style=&quot;width: 201.0px;height:auto;word-break: break-word;&quot;&gt;&lt;div align=&quot;center&quot;&gt;&lt;span style=&quot;font-family: Arial; font-size: 12px; text-decoration: none; line-height: 0;&quot;&gt;&lt;span style=&quot;text-decoration: none; line-height: 14px;&quot;&gt;&quot;Delete&quot; all active esat entries&lt;/span&gt;&lt;/span&gt;&lt;/div&gt;&lt;div align=&quot;center&quot;&gt;&lt;span style=&quot;font-family: Arial; font-size: 12px; text-decoration: none; line-height: 0;&quot;&gt;&lt;span style=&quot;text-decoration: none; line-height: 14px;&quot;&gt;where LK is not in stage&amp;nbsp; but HK_A is related to BK_A1 in stage (2 hop)&lt;/span&gt;&lt;/span&gt;&lt;/div&gt;&lt;/div&gt;" style="shape=note;size=10;shadow=0;strokeWidth=1;fillColor=#FFFFFF;strokeColor=#000000;opacity=100.0;html=1;nl2Br=0;verticalAlign=middle;align=center;spacingLeft=3.0;spacingRight=0;whiteSpace=wrap;gliffyId=759;" parent="2" vertex="1">
          <mxGeometry x="922.5" y="1534" width="210" height="70" as="geometry" />
        </mxCell>
        <mxCell id="150" value="&lt;div style=&quot;width: 162.14285px;height:auto;word-break: break-word;&quot;&gt;&lt;div align=&quot;center&quot;&gt;&lt;span style=&quot;font-family: Arial; font-size: 12px; text-decoration: none; line-height: 0;&quot;&gt;&lt;span style=&quot;text-decoration: none; line-height: 14px;&quot;&gt;&quot;Delete&quot; all active sat entries, where HK_A not in stage but related to BK_A1&amp;nbsp;&amp;nbsp;values that appear in stage (1 hop)&lt;/span&gt;&lt;/span&gt;&lt;/div&gt;&lt;/div&gt;" style="shape=note;size=10;shadow=0;strokeWidth=1;fillColor=#FFFFFF;strokeColor=#000000;opacity=100.0;html=1;nl2Br=0;verticalAlign=middle;align=center;spacingLeft=2.4285715;spacingRight=0;whiteSpace=wrap;gliffyId=499;" parent="2" vertex="1">
          <mxGeometry x="46" y="704" width="170" height="70" as="geometry" />
        </mxCell>
        <mxCell id="151" value="&quot;Delete&quot; all active sat entries, where HK_A not in stage but related to CT_A1  values that appear in stage (0 hop &amp; 1 hop)" style="shape=note;size=10;shadow=0;strokeWidth=1;fillColor=#FFFFFF;strokeColor=#000000;opacity=100.0;nl2Br=0;verticalAlign=middle;align=center;spacingLeft=2.4285715;spacingRight=0;whiteSpace=wrap;gliffyId=666;" parent="2" vertex="1">
          <mxGeometry x="709.75" y="721" width="212.75" height="70" as="geometry" />
        </mxCell>
        <mxCell id="152" value="&quot;Delete&quot; all active sat entries, where HK_A not in stage but related to BK_B1 in stage via A_B_LNK and B_HUB (2 hop, 1 sidestep)" style="shape=note;size=10;shadow=0;strokeWidth=1;fillColor=#FFFFFF;strokeColor=#000000;opacity=100.0;nl2Br=0;verticalAlign=middle;align=center;spacingLeft=2.4285715;spacingRight=0;whiteSpace=wrap;gliffyId=714;" parent="2" vertex="1">
          <mxGeometry x="59.75" y="1534" width="222.25" height="70" as="geometry" />
        </mxCell>
        <mxCell id="153" value="&lt;div style=&quot;width: 162.14285px;height:auto;word-break: break-word;&quot;&gt;&lt;div align=&quot;center&quot;&gt;&lt;span style=&quot;font-family: Arial; font-size: 12px; text-decoration: none; line-height: 0;&quot;&gt;&lt;span style=&quot;text-decoration: none; line-height: 14px;&quot;&gt;&quot;Delete&quot; all active sat entries, where HK_A not in stage but related to BK_A1 in stage&lt;/span&gt;&lt;/span&gt;&lt;/div&gt;&lt;div align=&quot;center&quot;&gt;&lt;span style=&quot;font-family: Arial; font-size: 12px; text-decoration: none; line-height: 0;&quot;&gt;&lt;span style=&quot;text-decoration: none; line-height: 14px;&quot;&gt;(2 hop, 1 sidestep)&lt;span style=&quot;white-space: pre;&quot;&gt; &lt;/span&gt;&lt;/span&gt;&lt;/span&gt;&lt;/div&gt;&lt;/div&gt;" style="shape=note;size=10;shadow=0;strokeWidth=1;fillColor=#FFFFFF;strokeColor=#000000;opacity=100.0;html=1;nl2Br=0;verticalAlign=middle;align=center;spacingLeft=2.4285715;spacingRight=0;whiteSpace=wrap;gliffyId=757;" parent="2" vertex="1">
          <mxGeometry x="725" y="1534" width="170" height="71" as="geometry" />
        </mxCell>
        <mxCell id="154" value="&lt;div style=&quot;width: 212.65715px;height:auto;word-break: break-word;&quot;&gt;&lt;div align=&quot;center&quot;&gt;&lt;span style=&quot;font-family: Arial; font-size: 12px; text-decoration: none; line-height: 0;&quot;&gt;&lt;span style=&quot;text-decoration: none; line-height: 14px;&quot;&gt;&quot;Delete&quot; all active sat entries, where HK_A not in stage but related&amp;nbsp;to DC_AB1&amp;nbsp;&amp;nbsp;values that appear in stage&lt;/span&gt;&lt;/span&gt;&lt;/div&gt;&lt;div align=&quot;center&quot;&gt;&lt;span style=&quot;font-family: Arial; font-size: 12px; text-decoration: none; line-height: 0;&quot;&gt;&lt;span style=&quot;text-decoration: none; line-height: 14px;&quot;&gt;(1 hop)&lt;/span&gt;&lt;/span&gt;&lt;/div&gt;&lt;/div&gt;" style="shape=note;size=10;shadow=0;strokeWidth=1;fillColor=#FFFFFF;strokeColor=#000000;opacity=100.0;html=1;nl2Br=0;verticalAlign=middle;align=center;spacingLeft=3.1714287;spacingRight=0;whiteSpace=wrap;gliffyId=816;" parent="2" vertex="1">
          <mxGeometry x="46" y="1084" width="222" height="60" as="geometry" />
        </mxCell>
        <mxCell id="155" value="&quot;Delete&quot; all active sat entries, where HK_A not in stage but related to CT_AB1 values that appear in stage (2 hop)" style="shape=note;size=10;shadow=0;strokeWidth=1;fillColor=#FFFFFF;strokeColor=#000000;opacity=100.0;nl2Br=0;verticalAlign=middle;align=center;spacingLeft=3.1714287;spacingRight=0;whiteSpace=wrap;gliffyId=832;" parent="2" vertex="1">
          <mxGeometry x="713.5" y="1084" width="229.5" height="60" as="geometry" />
        </mxCell>
        <mxCell id="156" value="&lt;div style=&quot;width: 264.14285px;height:auto;word-break: break-word;&quot;&gt;&lt;div align=&quot;center&quot;&gt;&lt;span style=&quot;font-family: Arial; font-size: 12px; text-decoration: none; line-height: 0;&quot;&gt;&lt;span style=&quot;text-decoration: none; line-height: 14px;&quot;&gt;&quot;Delete&quot; all active sat entries&amp;nbsp;&lt;/span&gt;&lt;/span&gt;&lt;span style=&quot;line-height: normal; line-height: normal;&quot;&gt;where LK is not in stage&amp;nbsp; but HK_A is related to DC_AB1&amp;nbsp;values that appear in stage (1 hop)&lt;/span&gt;&lt;/div&gt;&lt;/div&gt;" style="shape=note;size=10;shadow=0;strokeWidth=1;fillColor=#FFFFFF;strokeColor=#000000;opacity=100.0;html=1;nl2Br=0;verticalAlign=middle;align=center;spacingLeft=3.9285715;spacingRight=0;whiteSpace=wrap;gliffyId=545;" parent="2" vertex="1">
          <mxGeometry x="297.25" y="1074" width="275" height="70" as="geometry" />
        </mxCell>
        <mxCell id="157" value="&lt;div style=&quot;width: 264.14285px;height:auto;word-break: break-word;&quot;&gt;&lt;div align=&quot;center&quot;&gt;&lt;span style=&quot;font-family: Arial; font-size: 12px; text-decoration: none; line-height: 0;&quot;&gt;&lt;span style=&quot;text-decoration: none; line-height: 14px;&quot;&gt;&quot;Delete&quot; all active sat entries&amp;nbsp;&lt;/span&gt;&lt;/span&gt;&lt;span style=&quot;line-height: normal; line-height: normal;&quot;&gt;where LK is not in stage but LK_A_B is related to CT_AB1&lt;/span&gt;&lt;/div&gt;&lt;div align=&quot;center&quot;&gt;&lt;span style=&quot;line-height: normal; line-height: normal;&quot;&gt;(0 hop)&lt;/span&gt;&lt;/div&gt;&lt;/div&gt;" style="shape=note;size=10;shadow=0;strokeWidth=1;fillColor=#FFFFFF;strokeColor=#000000;opacity=100.0;html=1;nl2Br=0;verticalAlign=middle;align=center;spacingLeft=3.9285715;spacingRight=0;whiteSpace=wrap;gliffyId=830;" parent="2" vertex="1">
          <mxGeometry x="964.75" y="1084" width="275" height="60" as="geometry" />
        </mxCell>
        <mxCell id="158" value="&lt;div style=&#39;width: 93.0px;height:auto;word-break: break-word;&#39;&gt;&lt;div align=&quot;center&quot;&gt;&lt;span style=&quot;font-family: Arial; font-size: 12px; text-decoration: none; line-height: 0;&quot;&gt;&lt;span style=&quot;text-decoration: none; line-height: 14px;&quot;&gt;A_HUB&lt;/span&gt;&lt;/span&gt;&lt;/div&gt;&lt;/div&gt;" style="shape=ellipse;perimeter=ellipsePerimeter;shadow=0;strokeWidth=2;fillColor=#FFFFFF;strokeColor=#000000;opacity=100.0;html=1;nl2Br=0;verticalAlign=middle;align=center;spacingLeft=2.0;spacingRight=0;whiteSpace=wrap;gliffyId=12;" parent="2" vertex="1">
          <mxGeometry x="146.25" y="279" width="100" height="50" as="geometry" />
        </mxCell>
        <mxCell id="159" value="&lt;div style=&#39;width: 93.0px;height:auto;word-break: break-word;&#39;&gt;&lt;div align=&quot;center&quot;&gt;&lt;span style=&quot;font-family: Arial; font-size: 12px; text-decoration: none; line-height: 0;&quot;&gt;&lt;span style=&quot;text-decoration: none; line-height: 14px;&quot;&gt;A_HUB&lt;/span&gt;&lt;/span&gt;&lt;/div&gt;&lt;/div&gt;" style="shape=ellipse;perimeter=ellipsePerimeter;shadow=0;strokeWidth=2;fillColor=#FFFFFF;strokeColor=#333333;opacity=100.0;html=1;nl2Br=0;verticalAlign=middle;align=center;spacingLeft=2.0;spacingRight=0;whiteSpace=wrap;gliffyId=495;" parent="2" vertex="1">
          <mxGeometry x="143.5" y="639" width="100" height="50" as="geometry" />
        </mxCell>
        <mxCell id="161" value="&lt;div style=&#39;width: 93.0px;height:auto;word-break: break-word;&#39;&gt;&lt;div align=&quot;center&quot;&gt;&lt;span style=&quot;font-family: Arial; font-size: 12px; line-height: 0;&quot;&gt;&lt;span style=&quot;line-height: 14px;&quot; class=&quot;&quot;&gt;B_HUB&lt;/span&gt;&lt;/span&gt;&lt;/div&gt;&lt;/div&gt;" style="shape=ellipse;perimeter=ellipsePerimeter;shadow=0;strokeWidth=2;fillColor=#FFFFFF;strokeColor=#d2d2d2;opacity=100.0;html=1;nl2Br=0;verticalAlign=middle;align=center;spacingLeft=2;spacingRight=0;whiteSpace=wrap;gliffyId=493;fontColor=#d2d2d2;" parent="2" vertex="1">
          <mxGeometry x="538.5" y="639" width="100" height="50" as="geometry" />
        </mxCell>
        <mxCell id="162" value="&lt;div style=&#39;width: 93.0px;height:auto;word-break: break-word;&#39;&gt;&lt;div align=&quot;center&quot;&gt;&lt;span style=&quot;font-family: Arial; font-size: 12px; line-height: 0;&quot;&gt;&lt;span style=&quot;line-height: 14px;&quot; class=&quot;&quot;&gt;B_HUB&lt;/span&gt;&lt;/span&gt;&lt;/div&gt;&lt;/div&gt;" style="shape=ellipse;perimeter=ellipsePerimeter;shadow=0;strokeWidth=2;fillColor=#FFFFFF;strokeColor=#d2d2d2;opacity=100.0;html=1;nl2Br=0;verticalAlign=middle;align=center;spacingLeft=2;spacingRight=0;whiteSpace=wrap;gliffyId=662;fontColor=#d2d2d2;" parent="2" vertex="1">
          <mxGeometry x="1227.75" y="639" width="100" height="50" as="geometry" />
        </mxCell>
        <mxCell id="164" value="&lt;div style=&#39;width: 93.0px;height:auto;word-break: break-word;&#39;&gt;&lt;div align=&quot;center&quot;&gt;&lt;span style=&quot;font-family: Arial; font-size: 12px; line-height: 0;&quot;&gt;&lt;span style=&quot;line-height: 14px;&quot; class=&quot;&quot;&gt;B_HUB&lt;/span&gt;&lt;/span&gt;&lt;/div&gt;&lt;/div&gt;" style="shape=ellipse;perimeter=ellipsePerimeter;shadow=0;strokeWidth=2;fillColor=#FFFFFF;strokeColor=#d2d2d2;opacity=100.0;html=1;nl2Br=0;verticalAlign=middle;align=center;spacingLeft=2;spacingRight=0;whiteSpace=wrap;gliffyId=539;fontColor=#d2d2d2;" parent="2" vertex="1">
          <mxGeometry x="538.5" y="1011.5" width="100" height="50" as="geometry" />
        </mxCell>
        <mxCell id="165" value="&lt;div style=&#39;width: 93.0px;height:auto;word-break: break-word;&#39;&gt;&lt;div align=&quot;center&quot;&gt;&lt;span style=&quot;font-family: Arial; font-size: 12px; line-height: 0;&quot;&gt;&lt;span style=&quot;line-height: 14px;&quot; class=&quot;&quot;&gt;B_HUB&lt;/span&gt;&lt;/span&gt;&lt;/div&gt;&lt;/div&gt;" style="shape=ellipse;perimeter=ellipsePerimeter;shadow=0;strokeWidth=2;fillColor=#FFFFFF;strokeColor=#d2d2d2;opacity=100.0;html=1;nl2Br=0;verticalAlign=middle;align=center;spacingLeft=2;spacingRight=0;whiteSpace=wrap;gliffyId=826;fontColor=#d2d2d2;" parent="2" vertex="1">
          <mxGeometry x="1206" y="1011.5" width="100" height="50" as="geometry" />
        </mxCell>
        <mxCell id="167" value="&lt;div style=&#39;width: 118.35555px;height:auto;word-break: break-word;&#39;&gt;&lt;div align=&quot;center&quot;&gt;&lt;span style=&quot;font-family: Arial; font-size: 12px; text-decoration: none; line-height: 0;&quot;&gt;&lt;span style=&quot;text-decoration: none; line-height: 14px;&quot; class=&quot;&quot;&gt;A_B_LNK&lt;/span&gt;&lt;/span&gt;&lt;/div&gt;&lt;/div&gt;" style="shape=hexagon;perimeter=hexagonPerimeter2;shadow=0;strokeWidth=2;fillColor=#FFFFFF;strokeColor=#333333;opacity=100.0;html=1;nl2Br=0;verticalAlign=middle;align=center;spacingLeft=2.8222222;spacingRight=0;whiteSpace=wrap;gliffyId=491;" parent="2" vertex="1">
          <mxGeometry x="388.5" y="640" width="127" height="48" as="geometry" />
        </mxCell>
        <mxCell id="168" value="&lt;div style=&#39;width: 118.35555px;height:auto;word-break: break-word;&#39;&gt;&lt;div align=&quot;center&quot;&gt;&lt;span style=&quot;font-family: Arial; font-size: 12px; text-decoration: none; line-height: 0;&quot;&gt;&lt;span style=&quot;text-decoration: none; line-height: 14px;&quot; class=&quot;&quot;&gt;A_B_LNK&lt;/span&gt;&lt;/span&gt;&lt;/div&gt;&lt;/div&gt;" style="shape=hexagon;perimeter=hexagonPerimeter2;shadow=0;strokeWidth=2;fillColor=#FFFFFF;strokeColor=#333333;opacity=100.0;html=1;nl2Br=0;verticalAlign=middle;align=center;spacingLeft=2.8222222;spacingRight=0;whiteSpace=wrap;gliffyId=660;" parent="2" vertex="1">
          <mxGeometry x="1077.75" y="640" width="127" height="48" as="geometry" />
        </mxCell>
        <mxCell id="169" value="&lt;div style=&#39;width: 118.35555px;height:auto;word-break: break-word;&#39;&gt;&lt;div align=&quot;center&quot;&gt;&lt;span style=&quot;font-family: Arial; font-size: 12px; text-decoration: none; line-height: 0;&quot;&gt;&lt;span style=&quot;text-decoration: none; line-height: 14px;&quot; class=&quot;&quot;&gt;A_B_LNK&lt;/span&gt;&lt;/span&gt;&lt;/div&gt;&lt;/div&gt;" style="shape=hexagon;perimeter=hexagonPerimeter2;shadow=0;strokeWidth=2;fillColor=#FFFFFF;strokeColor=#333333;opacity=100.0;html=1;nl2Br=0;verticalAlign=middle;align=center;spacingLeft=2.8222222;spacingRight=0;whiteSpace=wrap;gliffyId=708;" parent="2" vertex="1">
          <mxGeometry x="380" y="1470" width="127" height="48" as="geometry" />
        </mxCell>
        <mxCell id="170" value="&lt;div style=&#39;width: 118.35555px;height:auto;word-break: break-word;&#39;&gt;&lt;div align=&quot;center&quot;&gt;&lt;span style=&quot;font-family: Arial; font-size: 12px; text-decoration: none; line-height: 0;&quot;&gt;&lt;span style=&quot;text-decoration: none; line-height: 14px;&quot; class=&quot;&quot;&gt;A_B_LNK&lt;/span&gt;&lt;/span&gt;&lt;/div&gt;&lt;/div&gt;" style="shape=hexagon;perimeter=hexagonPerimeter2;shadow=0;strokeWidth=2;fillColor=#FFFFFF;strokeColor=#333333;opacity=100.0;html=1;nl2Br=0;verticalAlign=middle;align=center;spacingLeft=2.8222222;spacingRight=0;whiteSpace=wrap;gliffyId=751;" parent="2" vertex="1">
          <mxGeometry x="950.5" y="1469" width="127" height="48" as="geometry" />
        </mxCell>
        <mxCell id="171" value="&lt;div style=&quot;width: 173.77777px;height:auto;word-break: break-word;&quot;&gt;&lt;div align=&quot;center&quot;&gt;&lt;span style=&quot;font-family: Arial; font-size: 12px; text-decoration: none; line-height: 0;&quot;&gt;&lt;span style=&quot;text-decoration: none; line-height: 14px;&quot;&gt;A_B_LNK&lt;/span&gt;&lt;/span&gt;&lt;/div&gt;&lt;div align=&quot;center&quot;&gt;&lt;span style=&quot;font-family: Arial; font-size: 12px; text-decoration: none; line-height: 0;&quot;&gt;&lt;span style=&quot;text-decoration: none; line-height: 14px;&quot;&gt;(&lt;font color=&quot;#3333ff&quot;&gt;&lt;span style=&quot;font-weight: bold; line-height: 14px;&quot;&gt;DC_AB1&lt;/span&gt;,&lt;/font&gt; DC_AB2)&lt;/span&gt;&lt;/span&gt;&lt;/div&gt;&lt;/div&gt;" style="shape=hexagon;perimeter=hexagonPerimeter2;shadow=0;strokeWidth=2;fillColor=#FFFFFF;strokeColor=#333333;opacity=100.0;html=1;nl2Br=0;verticalAlign=middle;align=center;spacingLeft=4.111111;spacingRight=0;whiteSpace=wrap;gliffyId=537;" parent="2" vertex="1">
          <mxGeometry x="340.75" y="1011.5" width="185" height="48" as="geometry" />
        </mxCell>
        <mxCell id="172" value="&lt;div style=&#39;width: 173.77777px;height:auto;word-break: break-word;&#39;&gt;&lt;div align=&quot;center&quot;&gt;&lt;span style=&quot;font-family: Arial; font-size: 12px; text-decoration: none; line-height: 0;&quot;&gt;&lt;span style=&quot;text-decoration: none; line-height: 14px;&quot;&gt;A_B_LNK&lt;/span&gt;&lt;/span&gt;&lt;/div&gt;&lt;/div&gt;" style="shape=hexagon;perimeter=hexagonPerimeter2;shadow=0;strokeWidth=2;fillColor=#FFFFFF;strokeColor=#333333;opacity=100.0;html=1;nl2Br=0;verticalAlign=middle;align=center;spacingLeft=4.111111;spacingRight=0;whiteSpace=wrap;gliffyId=824;" parent="2" vertex="1">
          <mxGeometry x="1008.25" y="1011.5" width="185" height="48" as="geometry" />
        </mxCell>
        <mxCell id="173" style="shape=filledEdge;strokeWidth=2;strokeColor=#3333FF;fillColor=none;startArrow=oval;startFill=1;startSize=6;endArrow=none;endFill=0;endSize=6;rounded=0;gliffyId=582;" parent="2" source="171" edge="1">
          <mxGeometry width="70" height="54" relative="1" as="geometry">
            <mxPoint x="410" y="1040" as="sourcePoint" />
            <mxPoint x="399" y="899" as="targetPoint" />
          </mxGeometry>
        </mxCell>
        <mxCell id="174" style="shape=filledEdge;strokeWidth=2;strokeColor=#3333FF;fillColor=none;startArrow=oval;startFill=1;startSize=6;endArrow=none;endFill=0;endSize=6;rounded=0;gliffyId=864;exitX=0.7071067690849304;exitY=0.0;exitPerimeter=0;entryX=0.5;entryY=1.0;entryPerimeter=0;" parent="2" source="52" target="107" edge="1">
          <mxGeometry width="70" height="54" relative="1" as="geometry">
            <Array as="points">
              <mxPoint x="987.5685424804688" y="940" />
              <mxPoint x="1046.5" y="900" />
            </Array>
          </mxGeometry>
        </mxCell>
        <mxCell id="175" style="shape=rect;shadow=0;strokeWidth=0;strokeColor=none;fillColor=#ffffff;opacity=78.0;gliffyId=871;movable=1;resizable=1;rotatable=1;deletable=1;editable=1;locked=0;connectable=1;" parent="2" vertex="1">
          <mxGeometry x="116" y="260" width="131" height="88" as="geometry" />
        </mxCell>
        <mxCell id="o0Gcgj2iXJ9e7bKyXlry-180" style="shape=filledEdge;strokeWidth=2;strokeColor=#3333FF;fillColor=none;startArrow=oval;startFill=1;startSize=6;endArrow=none;endFill=0;endSize=6;rounded=0;gliffyId=523;entryX=0.5;entryY=1;entryDx=0;entryDy=0;" parent="2" source="36" target="90" edge="1">
          <mxGeometry width="70" height="54" relative="1" as="geometry">
            <mxPoint x="204" y="674" as="sourcePoint" />
            <mxPoint x="154" y="540" as="targetPoint" />
          </mxGeometry>
        </mxCell>
        <mxCell id="o0Gcgj2iXJ9e7bKyXlry-182" style="shape=filledEdge;strokeWidth=2;strokeColor=#3333FF;fillColor=none;startArrow=none;startFill=0;startSize=6;endArrow=oval;endFill=1;endSize=6;rounded=0;gliffyId=523;" parent="2" edge="1">
          <mxGeometry width="70" height="54" relative="1" as="geometry">
            <mxPoint x="849.13" y="346.5" as="sourcePoint" />
            <mxPoint x="924.13" y="346.5" as="targetPoint" />
          </mxGeometry>
        </mxCell>
        <mxCell id="o0Gcgj2iXJ9e7bKyXlry-184" value="join &#xa;path" style="shape=filledEdge;strokeWidth=2;strokeColor=#cc0000;fillColor=none;startArrow=block;startFill=0;startSize=6;endArrow=block;endFill=1;endSize=6;rounded=0;gliffyId=432;" parent="2" edge="1">
          <mxGeometry width="28" height="23" relative="1" as="geometry">
            <mxPoint x="939.88" y="253" as="sourcePoint" />
            <mxPoint x="851.88" y="253" as="targetPoint" />
          </mxGeometry>
        </mxCell>
        <mxCell id="o0Gcgj2iXJ9e7bKyXlry-185" value="&lt;div style=&quot;width: 147.0px;height:auto;word-break: break-word;&quot;&gt;&lt;div align=&quot;center&quot;&gt;&lt;font face=&quot;Arial&quot;&gt;Insert deletion record&lt;/font&gt;&lt;/div&gt;&lt;div align=&quot;center&quot;&gt;&lt;font face=&quot;Arial&quot;&gt;&amp;nbsp;here&amp;nbsp;&lt;/font&gt;&lt;span style=&quot;font-family: Arial; background-color: initial;&quot;&gt;if partner&amp;nbsp;&lt;/span&gt;&lt;/div&gt;&lt;div align=&quot;center&quot;&gt;&lt;span style=&quot;font-family: Arial; background-color: initial;&quot;&gt;is missing&lt;/span&gt;&lt;/div&gt;&lt;/div&gt;" style="text;html=1;nl2Br=0;html=1;nl2Br=0;verticalAlign=middle;align=center;spacingLeft=0.0;spacingRight=0;whiteSpace=wrap;gliffyId=640;" parent="2" vertex="1">
          <mxGeometry x="704" y="228" width="142" height="42" as="geometry" />
        </mxCell>
        <mxCell id="o0Gcgj2iXJ9e7bKyXlry-186" value="&lt;div style=&quot;width: 147.0px;height:auto;word-break: break-word;&quot;&gt;&lt;div align=&quot;center&quot;&gt;&lt;font face=&quot;Arial&quot;&gt;left joined&lt;/font&gt;&lt;/div&gt;&lt;/div&gt;" style="text;html=1;nl2Br=0;html=1;nl2Br=0;verticalAlign=middle;align=center;spacingLeft=0.0;spacingRight=0;whiteSpace=wrap;gliffyId=640;" parent="2" vertex="1">
          <mxGeometry x="957" y="230" width="59" height="42" as="geometry" />
        </mxCell>
        <mxCell id="o0Gcgj2iXJ9e7bKyXlry-188" value="&lt;div style=&quot;width: 147.0px;height:auto;word-break: break-word;&quot;&gt;&lt;div align=&quot;center&quot;&gt;&lt;font face=&quot;Arial&quot;&gt;restricted by&amp;nbsp;&lt;/font&gt;&lt;/div&gt;&lt;div align=&quot;center&quot;&gt;&lt;font face=&quot;Arial&quot;&gt;distinct values&lt;/font&gt;&lt;/div&gt;&lt;div align=&quot;center&quot;&gt;&lt;font face=&quot;Arial&quot;&gt;from stage&lt;/font&gt;&lt;/div&gt;&lt;/div&gt;" style="text;html=1;nl2Br=0;html=1;nl2Br=0;verticalAlign=middle;align=center;spacingLeft=0.0;spacingRight=0;whiteSpace=wrap;gliffyId=640;" parent="2" vertex="1">
          <mxGeometry x="948.38" y="326" width="98" height="42" as="geometry" />
        </mxCell>
        <mxCell id="138" style="shape=filledEdge;strokeWidth=2;strokeColor=#3333FF;fillColor=none;startArrow=oval;startFill=1;startSize=6;endArrow=none;endFill=0;endSize=6;rounded=0;gliffyId=523;entryX=0.5;entryY=1.0;entryPerimeter=0;" parent="2" source="159" target="77" edge="1">
          <mxGeometry width="70" height="54" relative="1" as="geometry">
            <mxPoint x="246" y="638" as="sourcePoint" />
          </mxGeometry>
        </mxCell>
        <mxCell id="o0Gcgj2iXJ9e7bKyXlry-195" style="shape=filledEdge;strokeWidth=2;strokeColor=#cccccc;fillColor=none;startArrow=none;startFill=0;startSize=6;endArrow=none;endFill=0;endSize=6;rounded=0;gliffyId=802;dashed=1;dashPattern=1 1;" parent="2" edge="1">
          <mxGeometry width="142" height="65" relative="1" as="geometry">
            <mxPoint x="941" y="394" as="sourcePoint" />
            <mxPoint x="834" y="394" as="targetPoint" />
          </mxGeometry>
        </mxCell>
        <mxCell id="o0Gcgj2iXJ9e7bKyXlry-196" value="&lt;div style=&quot;width: 147.0px;height:auto;word-break: break-word;&quot;&gt;&lt;div align=&quot;center&quot;&gt;&lt;font face=&quot;Arial&quot;&gt;data mapping&lt;/font&gt;&lt;/div&gt;&lt;/div&gt;" style="text;html=1;nl2Br=0;html=1;nl2Br=0;verticalAlign=middle;align=center;spacingLeft=0.0;spacingRight=0;whiteSpace=wrap;gliffyId=640;" parent="2" vertex="1">
          <mxGeometry x="938.75" y="374" width="98" height="42" as="geometry" />
        </mxCell>
        <mxCell id="o0Gcgj2iXJ9e7bKyXlry-197" value="&lt;div style=&quot;width: 201.0px;height:auto;word-break: break-word;&quot;&gt;&lt;div align=&quot;center&quot;&gt;&lt;span style=&quot;font-family: Arial; font-size: 12px; text-decoration: none; line-height: 0;&quot;&gt;&lt;span style=&quot;text-decoration: none; line-height: 14px;&quot;&gt;&quot;Delete&quot; all active sat entries&lt;/span&gt;&lt;/span&gt;&lt;/div&gt;&lt;div align=&quot;center&quot;&gt;&lt;span style=&quot;font-family: Arial; font-size: 12px; text-decoration: none; line-height: 0;&quot;&gt;&lt;span style=&quot;text-decoration: none; line-height: 14px;&quot;&gt;where HK is not in stage&amp;nbsp; but related to CT_B1 (0 hop)&lt;/span&gt;&lt;/span&gt;&lt;/div&gt;&lt;/div&gt;" style="shape=note;size=10;shadow=0;strokeWidth=1;fillColor=#FFFFFF;strokeColor=#000000;opacity=100.0;html=1;nl2Br=0;verticalAlign=middle;align=center;spacingLeft=3.0;spacingRight=0;whiteSpace=wrap;gliffyId=759;" parent="2" vertex="1">
          <mxGeometry x="1158.25" y="1534" width="210" height="70" as="geometry" />
        </mxCell>
        <mxCell id="o0Gcgj2iXJ9e7bKyXlry-198" value="stage" style="rounded=0;whiteSpace=wrap;html=1;verticalAlign=top;align=left;strokeColor=none;fillColor=#E6E6E6;" parent="2" vertex="1">
          <mxGeometry x="48.75" y="1676" width="714.25" height="69" as="geometry" />
        </mxCell>
        <mxCell id="kWUUyLPTGwqevRa5YsfH-186" value="" style="edgeStyle=orthogonalEdgeStyle;shape=filledEdge;rounded=1;orthogonalLoop=1;jettySize=auto;html=1;labelBackgroundColor=default;strokeColor=#cc0000;strokeWidth=2;fontFamily=Helvetica;fontSize=11;fontColor=default;startArrow=none;startFill=0;endArrow=none;endFill=0;startSize=6;endSize=6;fillColor=none;" parent="2" source="o0Gcgj2iXJ9e7bKyXlry-199" target="o0Gcgj2iXJ9e7bKyXlry-204" edge="1">
          <mxGeometry relative="1" as="geometry" />
        </mxCell>
        <mxCell id="o0Gcgj2iXJ9e7bKyXlry-199" value="&lt;div style=&#39;width: 93.0px;height:auto;word-break: break-word;&#39;&gt;&lt;div align=&quot;center&quot;&gt;&lt;span style=&quot;font-family: Arial; font-size: 12px; text-decoration: none; line-height: 0;&quot;&gt;&lt;span style=&quot;text-decoration: none; line-height: 14px;&quot;&gt;A_HUB&lt;/span&gt;&lt;/span&gt;&lt;/div&gt;&lt;/div&gt;" style="shape=ellipse;perimeter=ellipsePerimeter;shadow=0;strokeWidth=2;fillColor=#FFFFFF;strokeColor=#d2d2d2;opacity=100.0;html=1;nl2Br=0;verticalAlign=middle;align=center;spacingLeft=2.0;spacingRight=0;whiteSpace=wrap;gliffyId=895;fontColor=#d2d2d2;" parent="2" vertex="1">
          <mxGeometry x="148" y="1837" width="68" height="50" as="geometry" />
        </mxCell>
        <mxCell id="o0Gcgj2iXJ9e7bKyXlry-201" style="shape=filledEdge;strokeWidth=2;strokeColor=#cc0000;fillColor=none;startArrow=none;startFill=0;startSize=6;endArrow=none;endFill=0;endSize=6;rounded=1;gliffyId=745;edgeStyle=orthogonalEdgeStyle;" parent="2" source="o0Gcgj2iXJ9e7bKyXlry-199" target="o0Gcgj2iXJ9e7bKyXlry-220" edge="1">
          <mxGeometry width="1" height="23" relative="1" as="geometry">
            <Array as="points" />
          </mxGeometry>
        </mxCell>
        <mxCell id="o0Gcgj2iXJ9e7bKyXlry-202" style="shape=filledEdge;strokeWidth=2;strokeColor=#cc0000;fillColor=none;startArrow=none;startFill=0;startSize=6;endArrow=none;endFill=0;endSize=6;rounded=1;gliffyId=743;edgeStyle=orthogonalEdgeStyle;" parent="2" source="o0Gcgj2iXJ9e7bKyXlry-219" target="o0Gcgj2iXJ9e7bKyXlry-220" edge="1">
          <mxGeometry width="1" height="23" relative="1" as="geometry">
            <Array as="points" />
          </mxGeometry>
        </mxCell>
        <mxCell id="o0Gcgj2iXJ9e7bKyXlry-222" style="edgeStyle=orthogonalEdgeStyle;shape=filledEdge;rounded=1;orthogonalLoop=1;jettySize=auto;html=1;entryX=0.375;entryY=0;entryDx=0;entryDy=0;labelBackgroundColor=default;strokeColor=#cc0000;strokeWidth=2;fontFamily=Helvetica;fontSize=11;fontColor=default;startArrow=none;startFill=0;endArrow=none;endFill=0;startSize=6;endSize=6;fillColor=none;" parent="2" source="o0Gcgj2iXJ9e7bKyXlry-203" target="o0Gcgj2iXJ9e7bKyXlry-220" edge="1">
          <mxGeometry relative="1" as="geometry" />
        </mxCell>
        <mxCell id="o0Gcgj2iXJ9e7bKyXlry-203" value="A_B_R1_ESAT" style="shape=rect;rounded=1;arcSize=15;absoluteArcSize=1;shadow=0;strokeWidth=2;fillColor=#ea9999;strokeColor=#333333;opacity=100.0;nl2Br=0;verticalAlign=middle;align=center;spacingLeft=1.6;spacingRight=0;whiteSpace=wrap;gliffyId=741;" parent="2" vertex="1">
          <mxGeometry x="194.63" y="1770" width="119.25" height="30" as="geometry" />
        </mxCell>
        <mxCell id="o0Gcgj2iXJ9e7bKyXlry-204" value="&lt;div style=&#39;width: 67.08px;height:auto;word-break: break-word;&#39;&gt;&lt;div align=&quot;center&quot;&gt;&lt;span style=&quot;font-family: Arial; font-size: 12px; text-decoration: none; line-height: 0;&quot;&gt;&lt;span style=&quot;text-decoration: none; line-height: 14px;&quot; class=&quot;&quot;&gt;A_SAT&lt;/span&gt;&lt;/span&gt;&lt;/div&gt;&lt;/div&gt;" style="shape=rect;rounded=1;arcSize=15;absoluteArcSize=1;shadow=0;strokeWidth=2;fillColor=#ea9999;strokeColor=#333333;opacity=100.0;html=1;nl2Br=0;verticalAlign=middle;align=center;spacingLeft=1.46;spacingRight=0;whiteSpace=wrap;gliffyId=739;" parent="2" vertex="1">
          <mxGeometry x="56.25" y="1847" width="73" height="30" as="geometry" />
        </mxCell>
        <mxCell id="o0Gcgj2iXJ9e7bKyXlry-205" value="XL3 Linked hub with 2 relations, only 1 relation is partioning" style="shape=rect;shadow=0;strokeWidth=0;strokeColor=none;fillColor=#cccccc;opacity=100.0;nl2Br=0;verticalAlign=top;align=left;spacingLeft=25.52;spacingRight=0;spacingTop=1.0;spacingBottom=8;whiteSpace=wrap;gliffyId=737;fontSize=22;fontStyle=1;" parent="2" vertex="1">
          <mxGeometry x="49" y="1628" width="710" height="40" as="geometry" />
        </mxCell>
        <mxCell id="o0Gcgj2iXJ9e7bKyXlry-206" value="&lt;div style=&quot;width: 54.6px;height:auto;word-break: break-word;&quot;&gt;&lt;div align=&quot;center&quot;&gt;&lt;span style=&quot;font-family: Arial; font-size: 12px; text-decoration: none; line-height: 0;&quot;&gt;&lt;span style=&quot;text-decoration: none; line-height: 14px;&quot;&gt;HK_B_R1&lt;/span&gt;&lt;/span&gt;&lt;/div&gt;&lt;/div&gt;" style="shape=rect;shadow=0;strokeWidth=2;fillColor=default;strokeColor=#cc0000;opacity=100.0;html=1;nl2Br=0;verticalAlign=middle;align=center;spacingLeft=1.8;spacingRight=0;whiteSpace=wrap;gliffyId=735;fontSize=11;labelBackgroundColor=default;endArrow=block;rounded=0;startArrow=block;startFill=0;startSize=6;endFill=1;endSize=6;" parent="2" vertex="1">
          <mxGeometry x="451.75" y="1698" width="60" height="30" as="geometry" />
        </mxCell>
        <mxCell id="o0Gcgj2iXJ9e7bKyXlry-207" value="&lt;div style=&quot;width: 73.8px;height:auto;word-break: break-word;&quot;&gt;&lt;div align=&quot;center&quot;&gt;&lt;span style=&quot;font-family: Arial; font-size: 12px; text-decoration: none; line-height: 0;&quot;&gt;&lt;span style=&quot;text-decoration: none; line-height: 14px;&quot;&gt;LK_A_B_R1&lt;/span&gt;&lt;/span&gt;&lt;/div&gt;&lt;/div&gt;" style="shape=rect;shadow=0;strokeWidth=2;fillColor=default;strokeColor=#cc0000;opacity=100.0;html=1;nl2Br=0;verticalAlign=middle;align=center;spacingLeft=1.8;spacingRight=0;whiteSpace=wrap;gliffyId=733;fontSize=11;labelBackgroundColor=default;endArrow=block;rounded=0;startArrow=block;startFill=0;startSize=6;endFill=1;endSize=6;" parent="2" vertex="1">
          <mxGeometry x="268.75" y="1698" width="80" height="30" as="geometry" />
        </mxCell>
        <mxCell id="o0Gcgj2iXJ9e7bKyXlry-208" value="&lt;div style=&#39;width: 54.6px;height:auto;word-break: break-word;&#39;&gt;&lt;div align=&quot;center&quot;&gt;&lt;span style=&quot;font-family: Arial; font-size: 12px; text-decoration: none; line-height: 0;&quot;&gt;&lt;span style=&quot;text-decoration: none; line-height: 14px;&quot;&gt;HK_A&lt;/span&gt;&lt;/span&gt;&lt;/div&gt;&lt;/div&gt;" style="shape=rect;shadow=0;strokeWidth=2;fillColor=default;strokeColor=#cc0000;opacity=100.0;html=1;nl2Br=0;verticalAlign=middle;align=center;spacingLeft=1.8;spacingRight=0;whiteSpace=wrap;gliffyId=731;fontSize=11;labelBackgroundColor=default;endArrow=block;rounded=0;startArrow=block;startFill=0;startSize=6;endFill=1;endSize=6;" parent="2" vertex="1">
          <mxGeometry x="62.75" y="1698" width="60" height="30" as="geometry" />
        </mxCell>
        <mxCell id="o0Gcgj2iXJ9e7bKyXlry-209" value="&lt;div style=&#39;width: 54.6px;height:auto;word-break: break-word;&#39;&gt;&lt;div align=&quot;center&quot;&gt;&lt;span style=&quot;font-family: Arial; font-size: 12px; text-decoration: none; line-height: 0;&quot;&gt;&lt;span style=&quot;text-decoration: none; line-height: 14px;&quot; class=&quot;&quot;&gt;BK_A1&lt;/span&gt;&lt;/span&gt;&lt;/div&gt;&lt;/div&gt;" style="shape=rect;shadow=0;strokeWidth=2;fillColor=#FFFFFF;strokeColor=#000000;opacity=100.0;html=1;nl2Br=0;verticalAlign=middle;align=center;spacingLeft=1.2;spacingRight=0;whiteSpace=wrap;gliffyId=729;" parent="2" vertex="1">
          <mxGeometry x="130.25" y="1698" width="60" height="30" as="geometry" />
        </mxCell>
        <mxCell id="o0Gcgj2iXJ9e7bKyXlry-211" value="&lt;div style=&#39;width: 54.6px;height:auto;word-break: break-word;&#39;&gt;&lt;div align=&quot;center&quot;&gt;&lt;span style=&quot;font-family: Arial; font-size: 12px; text-decoration: none; line-height: 0;&quot;&gt;&lt;span style=&quot;text-decoration: none; line-height: 14px;&quot;&gt;CT_A1&lt;/span&gt;&lt;/span&gt;&lt;/div&gt;&lt;/div&gt;" style="shape=rect;shadow=0;strokeWidth=2;fillColor=#FFFFFF;strokeColor=#000000;opacity=100.0;html=1;nl2Br=0;verticalAlign=middle;align=center;spacingLeft=1.2;spacingRight=0;whiteSpace=wrap;gliffyId=727;" parent="2" vertex="1">
          <mxGeometry x="197.25" y="1698" width="60" height="30" as="geometry" />
        </mxCell>
        <mxCell id="o0Gcgj2iXJ9e7bKyXlry-213" style="shape=filledEdge;strokeWidth=2;strokeColor=#cc0000;fillColor=none;startArrow=block;startFill=0;startSize=6;endArrow=block;endFill=1;endSize=6;rounded=0;gliffyId=722;exitX=0.5;exitY=1.0;exitPerimeter=0;entryX=0.5;entryY=0.0;entryPerimeter=0;edgeStyle=orthogonalEdgeStyle;" parent="2" source="o0Gcgj2iXJ9e7bKyXlry-207" target="o0Gcgj2iXJ9e7bKyXlry-203" edge="1">
          <mxGeometry width="28" height="23" relative="1" as="geometry" />
        </mxCell>
        <mxCell id="o0Gcgj2iXJ9e7bKyXlry-214" style="shape=filledEdge;strokeWidth=2;strokeColor=#cc0000;fillColor=none;startArrow=block;startFill=0;startSize=6;endArrow=block;endFill=1;endSize=6;rounded=0;gliffyId=721;exitX=0.5;exitY=1.0;exitPerimeter=0;entryX=0.5;entryY=0.0;entryPerimeter=0;edgeStyle=orthogonalEdgeStyle;" parent="2" source="o0Gcgj2iXJ9e7bKyXlry-208" target="o0Gcgj2iXJ9e7bKyXlry-204" edge="1">
          <mxGeometry width="28" height="23" relative="1" as="geometry">
            <Array as="points">
              <mxPoint x="92.75" y="1728" />
              <mxPoint x="92.75" y="1847" />
            </Array>
          </mxGeometry>
        </mxCell>
        <mxCell id="o0Gcgj2iXJ9e7bKyXlry-215" value="BK_B1_R1" style="shape=rect;shadow=0;strokeWidth=2;fillColor=#FFFFFF;strokeColor=#3333FF;opacity=100.0;nl2Br=0;verticalAlign=middle;align=center;spacingLeft=2.12;spacingRight=0;whiteSpace=wrap;gliffyId=719;" parent="2" vertex="1">
          <mxGeometry x="515.5" y="1698" width="74" height="30" as="geometry" />
        </mxCell>
        <mxCell id="o0Gcgj2iXJ9e7bKyXlry-216" style="shape=filledEdge;strokeWidth=2;strokeColor=#3333FF;fillColor=none;startArrow=none;startFill=0;startSize=6;endArrow=oval;endFill=1;endSize=6;rounded=0;gliffyId=747;exitX=0.7071067690849304;exitY=1;exitPerimeter=0;entryX=0.5;entryY=0;entryPerimeter=0;exitDx=0;exitDy=0;entryDx=0;entryDy=0;" parent="2" source="o0Gcgj2iXJ9e7bKyXlry-215" target="o0Gcgj2iXJ9e7bKyXlry-219" edge="1">
          <mxGeometry width="70" height="54" relative="1" as="geometry" />
        </mxCell>
        <mxCell id="o0Gcgj2iXJ9e7bKyXlry-218" value="&quot;Delete&quot; all active sat entries, where HK_A not in stage but related to BK_B1_R1 in stage via A_B_LNK and A_B_R1_ESAT (2 hop)" style="shape=note;size=10;shadow=0;strokeWidth=1;fillColor=#FFFFFF;strokeColor=#000000;opacity=100.0;nl2Br=0;verticalAlign=middle;align=center;spacingLeft=2.4285715;spacingRight=0;whiteSpace=wrap;gliffyId=714;" parent="2" vertex="1">
          <mxGeometry x="58.19" y="1919.5" width="170.63" height="87" as="geometry" />
        </mxCell>
        <mxCell id="o0Gcgj2iXJ9e7bKyXlry-220" value="&lt;div style=&#39;width: 118.35555px;height:auto;word-break: break-word;&#39;&gt;&lt;div align=&quot;center&quot;&gt;&lt;span style=&quot;font-family: Arial; font-size: 12px; text-decoration: none; line-height: 0;&quot;&gt;&lt;span style=&quot;text-decoration: none; line-height: 14px;&quot; class=&quot;&quot;&gt;A_B_LNK&lt;/span&gt;&lt;/span&gt;&lt;/div&gt;&lt;/div&gt;" style="shape=hexagon;perimeter=hexagonPerimeter2;shadow=0;strokeWidth=2;fillColor=#FFFFFF;strokeColor=#333333;opacity=100.0;html=1;nl2Br=0;verticalAlign=middle;align=center;spacingLeft=2.8222222;spacingRight=0;whiteSpace=wrap;gliffyId=708;" parent="2" vertex="1">
          <mxGeometry x="257.25" y="1838" width="127" height="48" as="geometry" />
        </mxCell>
        <mxCell id="o0Gcgj2iXJ9e7bKyXlry-232" style="edgeStyle=orthogonalEdgeStyle;shape=filledEdge;rounded=0;orthogonalLoop=1;jettySize=auto;html=1;labelBackgroundColor=default;strokeColor=#cc0000;strokeWidth=2;fontFamily=Helvetica;fontSize=11;fontColor=default;startArrow=block;startFill=0;endArrow=block;endFill=1;startSize=6;endSize=6;fillColor=none;" parent="2" source="o0Gcgj2iXJ9e7bKyXlry-223" target="o0Gcgj2iXJ9e7bKyXlry-226" edge="1">
          <mxGeometry relative="1" as="geometry" />
        </mxCell>
        <mxCell id="o0Gcgj2iXJ9e7bKyXlry-223" value="&lt;div style=&quot;width: 73.8px;height:auto;word-break: break-word;&quot;&gt;&lt;div align=&quot;center&quot;&gt;&lt;span style=&quot;font-family: Arial; font-size: 12px; text-decoration: none; line-height: 0;&quot;&gt;&lt;span style=&quot;text-decoration: none; line-height: 14px;&quot;&gt;LK_A_B_R2&lt;/span&gt;&lt;/span&gt;&lt;/div&gt;&lt;/div&gt;" style="shape=rect;shadow=0;strokeWidth=2;fillColor=default;strokeColor=#cc0000;opacity=100.0;html=1;nl2Br=0;verticalAlign=middle;align=center;spacingLeft=1.8;spacingRight=0;whiteSpace=wrap;gliffyId=733;fontSize=11;labelBackgroundColor=default;endArrow=block;rounded=0;startArrow=block;startFill=0;startSize=6;endFill=1;endSize=6;" parent="2" vertex="1">
          <mxGeometry x="357" y="1698" width="80" height="30" as="geometry" />
        </mxCell>
        <mxCell id="o0Gcgj2iXJ9e7bKyXlry-227" style="edgeStyle=orthogonalEdgeStyle;shape=filledEdge;rounded=1;orthogonalLoop=1;jettySize=auto;html=1;labelBackgroundColor=default;strokeColor=#cc0000;strokeWidth=2;fontFamily=Helvetica;fontSize=11;fontColor=default;startArrow=none;startFill=0;endArrow=none;endFill=0;startSize=6;endSize=6;fillColor=none;entryX=0.625;entryY=0;entryDx=0;entryDy=0;" parent="2" source="o0Gcgj2iXJ9e7bKyXlry-226" target="o0Gcgj2iXJ9e7bKyXlry-220" edge="1">
          <mxGeometry relative="1" as="geometry" />
        </mxCell>
        <mxCell id="o0Gcgj2iXJ9e7bKyXlry-226" value="A_B_R2_ESAT" style="shape=rect;rounded=1;arcSize=15;absoluteArcSize=1;shadow=0;strokeWidth=2;fillColor=#ea9999;strokeColor=#333333;opacity=100.0;nl2Br=0;verticalAlign=middle;align=center;spacingLeft=1.6;spacingRight=0;whiteSpace=wrap;gliffyId=741;" parent="2" vertex="1">
          <mxGeometry x="319.38" y="1768" width="119.25" height="30" as="geometry" />
        </mxCell>
        <mxCell id="o0Gcgj2iXJ9e7bKyXlry-228" value="BK_B1_R2" style="shape=rect;shadow=0;strokeWidth=2;fillColor=#FFFFFF;strokeColor=#000000;opacity=100.0;nl2Br=0;verticalAlign=middle;align=center;spacingLeft=2.12;spacingRight=0;whiteSpace=wrap;gliffyId=719;" parent="2" vertex="1">
          <mxGeometry x="674" y="1698" width="74" height="30" as="geometry" />
        </mxCell>
        <mxCell id="o0Gcgj2iXJ9e7bKyXlry-229" value="&lt;div style=&quot;width: 54.6px;height:auto;word-break: break-word;&quot;&gt;&lt;div align=&quot;center&quot;&gt;&lt;span style=&quot;font-family: Arial; font-size: 12px; text-decoration: none; line-height: 0;&quot;&gt;&lt;span style=&quot;text-decoration: none; line-height: 14px;&quot;&gt;HK_B_R2&lt;/span&gt;&lt;/span&gt;&lt;/div&gt;&lt;/div&gt;" style="shape=rect;shadow=0;strokeWidth=2;fillColor=default;strokeColor=#cc0000;opacity=100.0;html=1;nl2Br=0;verticalAlign=middle;align=center;spacingLeft=1.8;spacingRight=0;whiteSpace=wrap;gliffyId=735;fontSize=11;labelBackgroundColor=default;endArrow=block;rounded=0;startArrow=block;startFill=0;startSize=6;endFill=1;endSize=6;" parent="2" vertex="1">
          <mxGeometry x="609.5" y="1698" width="60" height="30" as="geometry" />
        </mxCell>
        <mxCell id="o0Gcgj2iXJ9e7bKyXlry-230" value="&lt;div style=&quot;width: 54.6px;height:auto;word-break: break-word;&quot;&gt;&lt;div align=&quot;center&quot;&gt;&lt;span style=&quot;font-family: Arial; font-size: 12px; text-decoration: none; line-height: 0;&quot;&gt;&lt;span style=&quot;text-decoration: none; line-height: 14px;&quot;&gt;BK_B2&lt;/span&gt;&lt;/span&gt;&lt;/div&gt;&lt;/div&gt;" style="shape=rect;shadow=0;strokeWidth=2;fillColor=#FFFFFF;strokeColor=#000000;opacity=100.0;html=1;nl2Br=0;verticalAlign=middle;align=center;spacingLeft=1.2;spacingRight=0;whiteSpace=wrap;gliffyId=723;" parent="2" vertex="1">
          <mxGeometry x="622" y="1330" width="60" height="30" as="geometry" />
        </mxCell>
        <mxCell id="o0Gcgj2iXJ9e7bKyXlry-233" value="&lt;div style=&quot;width: 201.0px;height:auto;word-break: break-word;&quot;&gt;&lt;div align=&quot;center&quot;&gt;&lt;span style=&quot;font-family: Arial; font-size: 12px; text-decoration: none; line-height: 0;&quot;&gt;&lt;span style=&quot;text-decoration: none; line-height: 14px;&quot;&gt;&quot;Delete&quot; all active esat entries&lt;/span&gt;&lt;/span&gt;&lt;/div&gt;&lt;div align=&quot;center&quot;&gt;&lt;span style=&quot;font-family: Arial; font-size: 12px; text-decoration: none; line-height: 0;&quot;&gt;&lt;span style=&quot;text-decoration: none; line-height: 14px;&quot;&gt;where LK is not in stage&amp;nbsp; but HK_B is related to BK_B1 in stage (2 hop)&lt;/span&gt;&lt;/span&gt;&lt;/div&gt;&lt;/div&gt;" style="shape=note;size=10;shadow=0;strokeWidth=1;fillColor=#FFFFFF;strokeColor=#000000;opacity=100.0;html=1;nl2Br=0;verticalAlign=middle;align=center;spacingLeft=3.0;spacingRight=0;whiteSpace=wrap;gliffyId=497;" parent="2" vertex="1">
          <mxGeometry x="343.5" y="1537.5" width="210" height="70" as="geometry" />
        </mxCell>
        <mxCell id="o0Gcgj2iXJ9e7bKyXlry-237" value="R1: &quot;Delete&quot; all active esat entries&#xa;where LK is not in stage  but HK_B is related to BK_B1 in stage (2 hop)" style="shape=note;size=10;shadow=0;strokeWidth=1;fillColor=#FFFFFF;strokeColor=#000000;opacity=100.0;nl2Br=0;verticalAlign=middle;align=center;spacingLeft=3.0;spacingRight=0;whiteSpace=wrap;gliffyId=497;" parent="2" vertex="1">
          <mxGeometry x="234.75" y="1919" width="163.25" height="88" as="geometry" />
        </mxCell>
        <mxCell id="o0Gcgj2iXJ9e7bKyXlry-238" value="R2: &quot;Delete&quot; all active esat entries&#xa;where LK is not in stage  but HK_B, when searched for same HK_A over AB_R1_ESATis related to BK_B1 in stage (3 hop + 1 sidestep)&#xa;(Must be executed before R1 deletion)" style="shape=note;size=10;shadow=0;strokeWidth=1;fillColor=#FFFFFF;strokeColor=#000000;opacity=100.0;nl2Br=0;verticalAlign=middle;align=center;spacingLeft=3.0;spacingRight=0;whiteSpace=wrap;gliffyId=497;" parent="2" vertex="1">
          <mxGeometry x="408.25" y="1918.5" width="241.25" height="88" as="geometry" />
        </mxCell>
        <mxCell id="o0Gcgj2iXJ9e7bKyXlry-239" value="eg. orders of all customers of a specific country(=partitions) , where the paying customer is a second relation and might reside in another country" style="shape=callout;whiteSpace=wrap;html=1;perimeter=calloutPerimeter;fontFamily=Helvetica;fontSize=11;fontColor=default;size=46;position=0;base=19;direction=south;position2=0;" parent="2" vertex="1">
          <mxGeometry x="749" y="1661" width="318" height="64.5" as="geometry" />
        </mxCell>
        <mxCell id="9UPOWXocqpclefj84K5T-179" value="&lt;div style=&#39;width: 93.0px;height:auto;word-break: break-word;&#39;&gt;&lt;div align=&quot;center&quot;&gt;&lt;span style=&quot;font-family: Arial; font-size: 12px; line-height: 0;&quot;&gt;&lt;span style=&quot;line-height: 14px;&quot; class=&quot;&quot;&gt;B_HUB&lt;/span&gt;&lt;/span&gt;&lt;/div&gt;&lt;/div&gt;" style="shape=ellipse;perimeter=ellipsePerimeter;shadow=0;strokeWidth=2;fillColor=#FFFFFF;strokeColor=#d2d2d2;opacity=100.0;html=1;nl2Br=0;verticalAlign=middle;align=center;spacingLeft=2;spacingRight=0;whiteSpace=wrap;gliffyId=710;fontColor=#d2d2d2;" parent="2" vertex="1">
          <mxGeometry x="434" y="2239" width="100" height="50" as="geometry" />
        </mxCell>
        <mxCell id="9UPOWXocqpclefj84K5T-180" value="stage" style="rounded=0;whiteSpace=wrap;html=1;verticalAlign=top;align=left;strokeColor=none;fillColor=#E6E6E6;" parent="2" vertex="1">
          <mxGeometry x="48.75" y="2101" width="704.25" height="69" as="geometry" />
        </mxCell>
        <mxCell id="9UPOWXocqpclefj84K5T-219" style="edgeStyle=orthogonalEdgeStyle;shape=filledEdge;rounded=1;orthogonalLoop=1;jettySize=auto;html=1;labelBackgroundColor=default;strokeColor=#cc0000;strokeWidth=2;fontFamily=Helvetica;fontSize=11;fontColor=default;startArrow=none;startFill=0;endArrow=none;endFill=0;startSize=6;endSize=6;fillColor=none;" parent="2" source="9UPOWXocqpclefj84K5T-181" target="9UPOWXocqpclefj84K5T-199" edge="1">
          <mxGeometry relative="1" as="geometry" />
        </mxCell>
        <mxCell id="9UPOWXocqpclefj84K5T-181" value="&lt;div style=&#39;width: 93.0px;height:auto;word-break: break-word;&#39;&gt;&lt;div align=&quot;center&quot;&gt;&lt;span style=&quot;font-family: Arial; font-size: 12px; text-decoration: none; line-height: 0;&quot;&gt;&lt;span style=&quot;text-decoration: none; line-height: 14px;&quot;&gt;A_HUB&lt;/span&gt;&lt;/span&gt;&lt;/div&gt;&lt;/div&gt;" style="shape=ellipse;perimeter=ellipsePerimeter;shadow=0;strokeWidth=2;fillColor=#FFFFFF;strokeColor=#333333;opacity=100.0;html=1;nl2Br=0;verticalAlign=middle;align=center;spacingLeft=2.0;spacingRight=0;whiteSpace=wrap;gliffyId=895;" parent="2" vertex="1">
          <mxGeometry x="130.25" y="2239" width="100" height="50" as="geometry" />
        </mxCell>
        <mxCell id="9UPOWXocqpclefj84K5T-184" style="shape=filledEdge;strokeWidth=2;strokeColor=#cc0000;fillColor=none;startArrow=none;startFill=0;startSize=6;endArrow=none;endFill=0;endSize=6;rounded=1;gliffyId=743;edgeStyle=orthogonalEdgeStyle;" parent="2" source="9UPOWXocqpclefj84K5T-179" target="9UPOWXocqpclefj84K5T-199" edge="1">
          <mxGeometry width="1" height="23" relative="1" as="geometry">
            <Array as="points" />
          </mxGeometry>
        </mxCell>
        <mxCell id="9UPOWXocqpclefj84K5T-185" style="edgeStyle=orthogonalEdgeStyle;shape=filledEdge;rounded=1;orthogonalLoop=1;jettySize=auto;html=1;labelBackgroundColor=default;strokeColor=#cc0000;strokeWidth=2;fontFamily=Helvetica;fontSize=11;fontColor=default;startArrow=none;startFill=0;endArrow=none;endFill=0;startSize=6;endSize=6;fillColor=none;shadow=0;opacity=100;spacingLeft=2.8222222;spacingRight=0;" parent="2" source="9UPOWXocqpclefj84K5T-186" target="9UPOWXocqpclefj84K5T-199" edge="1">
          <mxGeometry relative="1" as="geometry" />
        </mxCell>
        <mxCell id="9UPOWXocqpclefj84K5T-186" value="A_B_ESAT" style="shape=rect;rounded=1;arcSize=15;absoluteArcSize=1;shadow=0;strokeWidth=2;fillColor=#FFFFFF;strokeColor=#333333;opacity=100.0;nl2Br=0;verticalAlign=middle;align=center;spacingLeft=2.8222222;spacingRight=0;whiteSpace=wrap;gliffyId=741;" parent="2" vertex="1">
          <mxGeometry x="278.81" y="2189" width="83.87" height="30" as="geometry" />
        </mxCell>
        <mxCell id="9UPOWXocqpclefj84K5T-188" value="XL4 Sat related to the hub with partioning field via 2 links" style="shape=rect;shadow=0;strokeWidth=0;strokeColor=none;fillColor=#cccccc;opacity=100.0;nl2Br=0;verticalAlign=top;align=left;spacingLeft=25.52;spacingRight=0;spacingTop=1.0;spacingBottom=8;whiteSpace=wrap;gliffyId=737;fontSize=22;fontStyle=1;" parent="2" vertex="1">
          <mxGeometry x="49" y="2053" width="706" height="40" as="geometry" />
        </mxCell>
        <mxCell id="9UPOWXocqpclefj84K5T-192" value="&lt;div style=&#39;width: 54.6px;height:auto;word-break: break-word;&#39;&gt;&lt;div align=&quot;center&quot;&gt;&lt;span style=&quot;font-family: Arial; font-size: 12px; text-decoration: none; line-height: 0;&quot;&gt;&lt;span style=&quot;text-decoration: none; line-height: 14px;&quot; class=&quot;&quot;&gt;BK_A1&lt;/span&gt;&lt;/span&gt;&lt;/div&gt;&lt;/div&gt;" style="shape=rect;shadow=0;strokeWidth=2;fillColor=#FFFFFF;strokeColor=#3333FF;opacity=100.0;html=1;nl2Br=0;verticalAlign=middle;align=center;spacingLeft=2.12;spacingRight=0;whiteSpace=wrap;gliffyId=729;" parent="2" vertex="1">
          <mxGeometry x="151.5" y="2124" width="60" height="30" as="geometry" />
        </mxCell>
        <mxCell id="9UPOWXocqpclefj84K5T-199" value="&lt;div style=&#39;width: 118.35555px;height:auto;word-break: break-word;&#39;&gt;&lt;div align=&quot;center&quot;&gt;&lt;span style=&quot;font-family: Arial; font-size: 12px; text-decoration: none; line-height: 0;&quot;&gt;&lt;span style=&quot;text-decoration: none; line-height: 14px;&quot; class=&quot;&quot;&gt;A_B_LNK&lt;/span&gt;&lt;/span&gt;&lt;/div&gt;&lt;/div&gt;" style="shape=hexagon;perimeter=hexagonPerimeter2;shadow=0;strokeWidth=2;fillColor=#FFFFFF;strokeColor=#333333;opacity=100.0;html=1;nl2Br=0;verticalAlign=middle;align=center;spacingLeft=2.8222222;spacingRight=0;whiteSpace=wrap;gliffyId=708;" parent="2" vertex="1">
          <mxGeometry x="257.25" y="2240" width="127" height="48" as="geometry" />
        </mxCell>
        <mxCell id="9UPOWXocqpclefj84K5T-200" style="edgeStyle=orthogonalEdgeStyle;shape=filledEdge;rounded=0;orthogonalLoop=1;jettySize=auto;html=1;labelBackgroundColor=default;strokeColor=#cc0000;strokeWidth=2;fontFamily=Helvetica;fontSize=11;fontColor=default;startArrow=block;startFill=0;endArrow=block;endFill=1;startSize=6;endSize=6;fillColor=none;exitX=0.5;exitY=1;exitDx=0;exitDy=0;" parent="2" source="9UPOWXocqpclefj84K5T-205" target="9UPOWXocqpclefj84K5T-212" edge="1">
          <mxGeometry relative="1" as="geometry" />
        </mxCell>
        <mxCell id="9UPOWXocqpclefj84K5T-218" style="edgeStyle=orthogonalEdgeStyle;shape=filledEdge;rounded=1;orthogonalLoop=1;jettySize=auto;html=1;labelBackgroundColor=default;strokeColor=#cc0000;strokeWidth=2;fontFamily=Helvetica;fontSize=11;fontColor=default;startArrow=none;startFill=0;endArrow=none;endFill=0;startSize=6;endSize=6;fillColor=none;" parent="2" source="9UPOWXocqpclefj84K5T-203" target="9UPOWXocqpclefj84K5T-208" edge="1">
          <mxGeometry relative="1" as="geometry" />
        </mxCell>
        <mxCell id="9UPOWXocqpclefj84K5T-203" value="B_C_ESAT" style="shape=rect;rounded=1;arcSize=15;absoluteArcSize=1;shadow=0;strokeWidth=2;fillColor=#FFFFFF;strokeColor=#333333;opacity=100.0;nl2Br=0;verticalAlign=middle;align=center;spacingLeft=2.8222222;spacingRight=0;whiteSpace=wrap;gliffyId=741;" parent="2" vertex="1">
          <mxGeometry x="271.82" y="2299" width="98.37" height="30" as="geometry" />
        </mxCell>
        <mxCell id="9UPOWXocqpclefj84K5T-204" value="BK_C" style="shape=rect;shadow=0;strokeWidth=2;fillColor=#FFFFFF;strokeColor=#000000;opacity=100.0;nl2Br=0;verticalAlign=middle;align=center;spacingLeft=2.12;spacingRight=0;whiteSpace=wrap;gliffyId=719;" parent="2" vertex="1">
          <mxGeometry x="632.25" y="2120.5" width="54" height="30" as="geometry" />
        </mxCell>
        <mxCell id="9UPOWXocqpclefj84K5T-205" value="&lt;div style=&quot;width: 54.6px;height:auto;word-break: break-word;&quot;&gt;&lt;div align=&quot;center&quot;&gt;&lt;span style=&quot;font-family: Arial; font-size: 12px; text-decoration: none; line-height: 0;&quot;&gt;&lt;span style=&quot;text-decoration: none; line-height: 14px;&quot;&gt;HK_C&lt;/span&gt;&lt;/span&gt;&lt;/div&gt;&lt;/div&gt;" style="shape=rect;shadow=0;strokeWidth=2;fillColor=default;strokeColor=#cc0000;opacity=100.0;html=1;nl2Br=0;verticalAlign=middle;align=center;spacingLeft=1.8;spacingRight=0;whiteSpace=wrap;gliffyId=735;fontSize=11;labelBackgroundColor=none;endArrow=block;rounded=0;startArrow=block;startFill=0;startSize=6;endFill=1;endSize=6;" parent="2" vertex="1">
          <mxGeometry x="584" y="2120.5" width="48.25" height="30" as="geometry" />
        </mxCell>
        <mxCell id="9UPOWXocqpclefj84K5T-207" value=" &quot;Delete&quot; all active sat entries&#xa;where HK_C is not in stage but currently related to BK_A1 values in stage&#xa;(3 hop + 2 sidesteps)" style="shape=note;size=10;shadow=0;strokeWidth=1;fillColor=#FFFFFF;strokeColor=#000000;opacity=100.0;nl2Br=0;verticalAlign=middle;align=center;spacingLeft=3.0;spacingRight=0;whiteSpace=wrap;gliffyId=497;" parent="2" vertex="1">
          <mxGeometry x="489.5" y="2443" width="241.25" height="88" as="geometry" />
        </mxCell>
        <mxCell id="9UPOWXocqpclefj84K5T-210" style="edgeStyle=orthogonalEdgeStyle;shape=filledEdge;rounded=1;orthogonalLoop=1;jettySize=auto;html=1;entryX=0;entryY=0.5;entryDx=0;entryDy=0;labelBackgroundColor=default;strokeColor=#cc0000;strokeWidth=2;fontFamily=Helvetica;fontSize=11;fontColor=default;startArrow=none;startFill=0;endArrow=none;endFill=0;startSize=6;endSize=6;fillColor=none;exitX=0;exitY=0.5;exitDx=0;exitDy=0;" parent="2" source="9UPOWXocqpclefj84K5T-208" target="9UPOWXocqpclefj84K5T-209" edge="1">
          <mxGeometry relative="1" as="geometry" />
        </mxCell>
        <mxCell id="9UPOWXocqpclefj84K5T-211" style="edgeStyle=orthogonalEdgeStyle;shape=filledEdge;rounded=1;orthogonalLoop=1;jettySize=auto;html=1;labelBackgroundColor=default;strokeColor=#cc0000;strokeWidth=2;fontFamily=Helvetica;fontSize=11;fontColor=default;startArrow=none;startFill=0;endArrow=none;endFill=0;startSize=6;endSize=6;fillColor=none;entryX=0;entryY=0.5;entryDx=0;entryDy=0;" parent="2" source="9UPOWXocqpclefj84K5T-208" target="9UPOWXocqpclefj84K5T-179" edge="1">
          <mxGeometry relative="1" as="geometry" />
        </mxCell>
        <mxCell id="9UPOWXocqpclefj84K5T-208" value="&lt;div style=&quot;width: 118.35555px;height:auto;word-break: break-word;&quot;&gt;&lt;div align=&quot;center&quot;&gt;&lt;span style=&quot;font-family: Arial; font-size: 12px; text-decoration: none; line-height: 0;&quot;&gt;&lt;span style=&quot;text-decoration: none; line-height: 14px;&quot; class=&quot;&quot;&gt;B_C_LNK&lt;/span&gt;&lt;/span&gt;&lt;/div&gt;&lt;/div&gt;" style="shape=hexagon;perimeter=hexagonPerimeter2;shadow=0;strokeWidth=2;fillColor=#FFFFFF;strokeColor=#333333;opacity=100.0;html=1;nl2Br=0;verticalAlign=middle;align=center;spacingLeft=2.8222222;spacingRight=0;whiteSpace=wrap;gliffyId=708;" parent="2" vertex="1">
          <mxGeometry x="257.5" y="2345" width="127" height="48" as="geometry" />
        </mxCell>
        <mxCell id="9UPOWXocqpclefj84K5T-209" value="&lt;div style=&quot;width: 93.0px;height:auto;word-break: break-word;&quot;&gt;&lt;div align=&quot;center&quot;&gt;&lt;span style=&quot;font-family: Arial; font-size: 12px; line-height: 0;&quot;&gt;&lt;span style=&quot;line-height: 14px;&quot; class=&quot;&quot;&gt;C_HUB&lt;/span&gt;&lt;/span&gt;&lt;/div&gt;&lt;/div&gt;" style="shape=ellipse;perimeter=ellipsePerimeter;shadow=0;strokeWidth=2;fillColor=#FFFFFF;strokeColor=#d2d2d2;opacity=100.0;html=1;nl2Br=0;verticalAlign=middle;align=center;spacingLeft=2;spacingRight=0;whiteSpace=wrap;gliffyId=710;fontColor=#d2d2d2;" parent="2" vertex="1">
          <mxGeometry x="429.25" y="2385" width="100" height="50" as="geometry" />
        </mxCell>
        <mxCell id="9UPOWXocqpclefj84K5T-215" style="edgeStyle=orthogonalEdgeStyle;shape=filledEdge;rounded=1;orthogonalLoop=1;jettySize=auto;html=1;labelBackgroundColor=default;strokeColor=#cc0000;strokeWidth=2;fontFamily=Helvetica;fontSize=11;fontColor=default;startArrow=none;startFill=0;endArrow=none;endFill=0;startSize=6;endSize=6;fillColor=none;" parent="2" source="9UPOWXocqpclefj84K5T-212" target="9UPOWXocqpclefj84K5T-209" edge="1">
          <mxGeometry relative="1" as="geometry" />
        </mxCell>
        <mxCell id="9UPOWXocqpclefj84K5T-212" value="&lt;div style=&quot;width: 67.08px;height:auto;word-break: break-word;&quot;&gt;&lt;div align=&quot;center&quot;&gt;&lt;span style=&quot;font-family: Arial; font-size: 12px; text-decoration: none; line-height: 0;&quot;&gt;&lt;span style=&quot;text-decoration: none; line-height: 14px;&quot; class=&quot;&quot;&gt;C_SAT&lt;/span&gt;&lt;/span&gt;&lt;/div&gt;&lt;/div&gt;" style="shape=rect;rounded=1;arcSize=15;absoluteArcSize=1;shadow=0;strokeWidth=2;fillColor=#ea9999;strokeColor=#333333;opacity=100.0;html=1;nl2Br=0;verticalAlign=middle;align=center;spacingLeft=1.46;spacingRight=0;whiteSpace=wrap;gliffyId=739;" parent="2" vertex="1">
          <mxGeometry x="570.94" y="2395" width="73" height="30" as="geometry" />
        </mxCell>
        <mxCell id="9UPOWXocqpclefj84K5T-217" value="CT_C1" style="shape=rect;shadow=0;strokeWidth=2;fillColor=#FFFFFF;strokeColor=#000000;opacity=100.0;nl2Br=0;verticalAlign=middle;align=center;spacingLeft=2.12;spacingRight=0;whiteSpace=wrap;gliffyId=719;" parent="2" vertex="1">
          <mxGeometry x="686.25" y="2120.5" width="54" height="30" as="geometry" />
        </mxCell>
        <mxCell id="9UPOWXocqpclefj84K5T-197" style="shape=filledEdge;strokeWidth=2;strokeColor=#3333FF;fillColor=none;startArrow=none;startFill=0;startSize=6;endArrow=oval;endFill=1;endSize=6;rounded=0;gliffyId=747;exitX=0.5;exitY=1;exitDx=0;exitDy=0;" parent="2" source="9UPOWXocqpclefj84K5T-192" target="9UPOWXocqpclefj84K5T-181" edge="1">
          <mxGeometry width="70" height="54" relative="1" as="geometry" />
        </mxCell>
        <mxCell id="9UPOWXocqpclefj84K5T-220" value="eg. orderlines of all orders from a specific subdivision of the company" style="shape=callout;whiteSpace=wrap;html=1;perimeter=calloutPerimeter;fontFamily=Helvetica;fontSize=11;fontColor=default;size=46;position=0;base=19;direction=south;position2=0;" parent="2" vertex="1">
          <mxGeometry x="748" y="2070" width="205" height="64.5" as="geometry" />
        </mxCell>
        <mxCell id="kWUUyLPTGwqevRa5YsfH-179" style="shape=filledEdge;strokeWidth=2;strokeColor=#cc0000;fillColor=none;startArrow=none;startFill=0;startSize=6;endArrow=none;endFill=0;endSize=6;rounded=1;gliffyId=569;edgeStyle=orthogonalEdgeStyle;" parent="2" source="6" target="171" edge="1">
          <mxGeometry width="1" height="23" relative="1" as="geometry">
            <mxPoint x="129" y="1039" as="sourcePoint" />
            <mxPoint x="179" y="1043" as="targetPoint" />
          </mxGeometry>
        </mxCell>
        <mxCell id="13" value="&lt;div style=&quot;width: 93.0px;height:auto;word-break: break-word;&quot;&gt;&lt;div align=&quot;center&quot;&gt;&lt;span style=&quot;font-family: Arial; font-size: 12px; text-decoration: none; line-height: 0;&quot;&gt;&lt;span style=&quot;text-decoration: none; line-height: 14px;&quot;&gt;A_HUB&lt;/span&gt;&lt;/span&gt;&lt;/div&gt;&lt;/div&gt;" style="shape=ellipse;perimeter=ellipsePerimeter;shadow=0;strokeWidth=2;fillColor=#FFFFFF;strokeColor=#d2d2d2;opacity=100.0;html=1;nl2Br=0;verticalAlign=middle;align=center;spacingLeft=2.0;spacingRight=0;whiteSpace=wrap;gliffyId=664;fontColor=#d2d2d2;" parent="2" vertex="1">
          <mxGeometry x="848.38" y="640" width="100" height="50" as="geometry" />
        </mxCell>
        <mxCell id="112" style="shape=filledEdge;strokeWidth=2;strokeColor=#cccccc;fillColor=none;startArrow=none;startFill=0;startSize=6;endArrow=none;endFill=0;endSize=6;rounded=0;curved=1;edgeStyle=orthogonalEdgeStyle;gliffyId=802;edgeStyle=orthogonalEdgeStyle;dashed=1;dashPattern=1 1;entryX=1;entryY=0.75;entryDx=0;entryDy=0;" parent="2" source="96" target="45" edge="1">
          <mxGeometry width="142" height="65" relative="1" as="geometry">
            <Array as="points">
              <mxPoint x="1059" y="673" />
            </Array>
            <mxPoint x="803" y="701" as="targetPoint" />
          </mxGeometry>
        </mxCell>
        <mxCell id="kWUUyLPTGwqevRa5YsfH-187" style="edgeStyle=orthogonalEdgeStyle;shape=filledEdge;rounded=1;orthogonalLoop=1;jettySize=auto;html=1;entryX=0;entryY=0.5;entryDx=0;entryDy=0;labelBackgroundColor=default;strokeColor=#cc0000;strokeWidth=2;fontFamily=Helvetica;fontSize=11;fontColor=default;startArrow=none;startFill=0;endArrow=none;endFill=0;startSize=6;endSize=6;fillColor=none;exitX=0.625;exitY=1;exitDx=0;exitDy=0;" parent="2" source="o0Gcgj2iXJ9e7bKyXlry-220" target="o0Gcgj2iXJ9e7bKyXlry-220" edge="1">
          <mxGeometry relative="1" as="geometry">
            <Array as="points">
              <mxPoint x="337" y="1906" />
              <mxPoint x="233" y="1906" />
              <mxPoint x="233" y="1862" />
            </Array>
          </mxGeometry>
        </mxCell>
        <mxCell id="kWUUyLPTGwqevRa5YsfH-188" style="edgeStyle=orthogonalEdgeStyle;shape=filledEdge;rounded=1;orthogonalLoop=1;jettySize=auto;html=1;entryX=0.625;entryY=1;entryDx=0;entryDy=0;labelBackgroundColor=default;strokeColor=#cc0000;strokeWidth=2;fontFamily=Helvetica;fontSize=11;fontColor=default;startArrow=none;startFill=0;endArrow=none;endFill=0;startSize=6;endSize=6;fillColor=none;exitX=0.625;exitY=0;exitDx=0;exitDy=0;dashed=1;" parent="2" source="o0Gcgj2iXJ9e7bKyXlry-220" target="o0Gcgj2iXJ9e7bKyXlry-220" edge="1">
          <mxGeometry relative="1" as="geometry">
            <Array as="points">
              <mxPoint x="337" y="1850" />
              <mxPoint x="337" y="1874" />
            </Array>
          </mxGeometry>
        </mxCell>
      </root>
    </mxGraphModel>
  </diagram>
</mxfile>
